<svg width="340" height="70" viewBox="0 0 340 70" fill="none" xmlns="http://www.w3.org/2000/svg">
<path d="M49.904 3.5647L49.7588 3.88158L48.5309 6.59887L61.8612 13.0052L62.1226 13.2402L61.8532 13.4673L59.5479 15.3924L68.7217 26.8636L68.8511 27.1858L68.5131 27.2729L65.5872 28.0255L68.7904 42.288L68.764 42.6313L68.4259 42.5653L65.4525 41.9949L62.046 56.2256L61.877 56.5214L61.6024 56.3207L59.1756 54.5329L49.8354 65.917L49.5528 66.1072L49.3944 65.8061L48.0001 63.1628L34.5721 69.4397L34.2315 69.4899L34.2209 69.1466L34.1311 66.1705L19.2824 66.0966L18.9471 65.9989L19.0923 65.6794L20.3202 62.9621L6.98731 56.5557L6.72852 56.3207L6.99787 56.0962L9.3032 54.1685L0.129395 42.6973L0 42.3751L0.33801 42.2906L3.26391 41.5354L0.0607362 27.2729L0.0871433 26.9323L0.425154 26.9957L3.39859 27.5661L6.8051 13.3353L6.9741 13.0422L7.24874 13.2429L9.67554 15.028L19.0157 3.64392L19.2983 3.45379L19.4567 3.75747L20.851 6.40082L34.279 0.123859L34.6196 0.0710449L34.6302 0.416977L34.72 3.39041L49.5687 3.46435L49.904 3.5647ZM0.507015 27.5476L9.12628 29.4093C9.92905 25.7757 11.5003 22.4299 13.663 19.5515L7.07181 13.7024L14.0433 19.0604C16.2984 16.2058 19.1451 13.8397 22.3985 12.1496L19.1187 4.08228L22.9477 11.8724C26.2011 10.28 29.8426 9.35312 33.6901 9.2739L34.2843 0.369445L34.3212 9.26862C38.1212 9.27918 41.7284 10.1136 44.9712 11.6056L49.4023 3.65448L45.5522 11.8829C48.8161 13.4832 51.6892 15.7542 53.9945 18.5164L61.6341 13.1795L54.4117 19.026C56.5771 21.7592 58.1985 24.9438 59.1148 28.4137L68.4207 26.8742L59.2759 29.0607C59.7248 30.9647 59.9651 32.9505 59.9651 34.9891C59.9651 36.5497 59.8252 38.0761 59.5585 39.5602L68.6293 42.2009L59.4317 40.215C58.6897 43.817 57.195 47.1416 55.1168 50.02L61.8928 56.017L54.7365 50.5349C52.5183 53.4529 49.6954 55.8823 46.45 57.6358L49.7799 65.6767L45.906 57.9236C42.6368 59.5899 38.9636 60.5749 35.0712 60.699L34.6144 69.1466L34.4744 60.7122C34.3952 60.7122 34.3186 60.7148 34.2394 60.7148C30.4949 60.7148 26.9352 59.9121 23.7267 58.4729L19.5069 65.9329L23.1775 58.2194C19.7842 56.6006 16.7975 54.2583 14.4262 51.3931L7.1748 56.4184L14.0327 50.9099C11.8198 48.1028 10.1773 44.8231 9.28472 41.2476L0.433076 42.6709L9.13948 40.6323C8.73281 38.8155 8.51627 36.9274 8.51627 34.9891C8.51627 33.2911 8.68264 31.6301 8.99688 30.0219L0.507015 27.5476Z" fill="#878786"/>
<path fill-rule="evenodd" clip-rule="evenodd" d="M0.507045 27.548L9.51713 29.4968C9.47224 29.7081 9.42999 29.922 9.39038 30.1359L0.507045 27.548ZM0.433105 42.6713L9.61748 40.5191C9.66765 40.7383 9.72311 40.9548 9.77856 41.1687L0.433105 42.6713ZM7.17483 56.4188L14.4685 50.5591C14.6058 50.7334 14.7457 50.905 14.8857 51.074L7.17483 56.4188ZM19.5069 65.9333L23.4099 57.7286C23.6026 57.821 23.7981 57.9134 23.9935 58.0006L19.5069 65.9333ZM34.6144 69.147L34.4665 60.2425C34.6778 60.2425 34.8864 60.2399 35.0976 60.2346L34.6144 69.147ZM49.78 65.6771L45.737 57.5834C45.9272 57.4883 46.1173 57.3906 46.3074 57.2902L49.78 65.6771ZM61.8929 56.0174L54.5279 50.3769C54.6626 50.2026 54.7947 50.0283 54.9267 49.8514L61.8929 56.0174ZM68.6293 42.2012L59.3076 40.189C59.3552 39.9672 59.4 39.748 59.4423 39.5262L68.6293 42.2012ZM68.4207 26.8746L59.239 29.069C59.1888 28.8525 59.136 28.6359 59.0805 28.4194L68.4207 26.8746ZM61.6341 13.1799L54.4065 19.0317C54.2692 18.8574 54.1318 18.6884 53.9919 18.5194L61.6341 13.1799ZM49.4023 3.65488L45.5495 11.8886C45.3568 11.7935 45.1614 11.7011 44.966 11.6113L49.4023 3.65488ZM34.2843 0.369843L34.3213 9.31919C34.11 9.32183 33.8961 9.32447 33.6875 9.32975L34.2843 0.369843ZM19.1187 4.08267L23.0217 12.0259C22.8342 12.121 22.6494 12.216 22.4645 12.3164L19.1187 4.08267ZM7.07184 13.7028L14.2783 19.2403C14.1489 19.412 14.0195 19.5836 13.8901 19.7553L7.07184 13.7028Z" fill="white"/>
<path fill-rule="evenodd" clip-rule="evenodd" d="M34.2397 9.26639C48.4467 9.26639 59.9655 20.7851 59.9655 34.9895C59.9655 49.1991 48.4467 60.7152 34.2397 60.7152C20.0327 60.7152 8.5166 49.1991 8.5166 34.9895C8.5166 20.7851 20.0327 9.26639 34.2397 9.26639Z" fill="white"/>
<path fill-rule="evenodd" clip-rule="evenodd" d="M60.4719 34.9921C60.4719 49.4791 48.7287 61.2249 34.2391 61.2249C19.7522 61.2249 8.00635 49.4791 8.00635 34.9921C8.00635 20.5026 19.7522 8.75674 34.2391 8.75674C48.7287 8.75674 60.4719 20.5026 60.4719 34.9921ZM58.9191 34.9921C58.9191 21.382 47.8493 10.3121 34.2391 10.3121C20.6316 10.3121 9.55908 21.382 9.55908 34.9921C9.55908 48.5997 20.6316 59.6722 34.2391 59.6722C47.8493 59.6722 58.9191 48.5997 58.9191 34.9921Z" fill="#C5C6C6"/>
<path d="M60.2214 34.9921C60.2214 49.339 48.5891 60.9713 34.2395 60.9713C19.8926 60.9713 8.26025 49.339 8.26025 34.9921C8.26025 20.6425 19.8926 9.01019 34.2395 9.01019C48.5891 9.01019 60.2214 20.6425 60.2214 34.9921ZM59.173 34.9921C59.173 21.2419 47.9897 10.0586 34.2395 10.0586C20.492 10.0586 9.30861 21.2419 9.30861 34.9921C9.30861 48.7396 20.492 59.923 34.2395 59.923C47.9897 59.923 59.173 48.7396 59.173 34.9921Z" fill="#0A295D"/>
<path fill-rule="evenodd" clip-rule="evenodd" d="M34.2397 12.6571C46.5744 12.6571 56.5748 22.6575 56.5748 34.9922C56.5748 47.3243 46.5744 57.3246 34.2397 57.3246C21.9076 57.3246 11.9072 47.3243 11.9072 34.9922C11.9072 22.6575 21.9076 12.6571 34.2397 12.6571ZM48.959 46.0884C49.0276 46.0409 49.1016 45.9802 49.1808 45.8983C49.5822 45.5022 50.1631 44.6704 50.7256 43.4292C51.2881 42.1908 51.832 40.5456 52.2044 38.8899C52.5767 37.2341 52.7774 35.5705 52.7774 33.8567C52.7774 32.1455 52.5767 30.3868 52.3047 29.0532C52.0327 27.7197 51.6868 26.8113 51.4439 26.2435C51.2247 25.7418 51.0002 25.2189 50.7494 25.0922C46.9415 26.1273 44.549 27.0648 40.6275 27.4767C40.4295 25.6309 37.493 20.5053 36.4711 18.876C36.1436 18.3557 36.0353 18.2422 35.5336 18.1947C35.2141 18.1656 34.7335 18.163 34.2766 18.1683C33.8172 18.163 33.3365 18.1656 33.017 18.1947C32.5153 18.2422 32.3489 18.3214 32.0796 18.876L27.9231 27.4767C24.0017 27.0648 21.6092 26.1273 17.8013 25.0922C17.5504 25.2189 17.326 25.7418 17.1068 26.2435C16.8612 26.8113 16.5179 27.7197 16.2459 29.0532C15.9739 30.3868 15.7732 32.1455 15.7732 33.8567C15.7732 35.5705 15.9739 37.2341 16.3463 38.8899C16.7186 40.5456 17.2626 42.1908 17.825 43.4292C18.3875 44.6704 18.9685 45.5022 19.3699 45.8983C19.4966 46.0277 19.6075 46.1096 19.7158 46.1571C23.896 43.8729 28.9503 42.534 34.3981 42.534C39.7931 42.534 44.8025 43.8438 48.959 46.0884Z" fill="#0A295D"/>
<path fill-rule="evenodd" clip-rule="evenodd" d="M48.6129 45.6105C48.6815 45.5656 48.7528 45.5075 48.832 45.4309C49.2229 45.0506 49.7906 44.2558 50.3425 43.0727C50.8944 41.8897 51.4252 40.3185 51.7896 38.7393C52.1541 37.1602 52.3495 35.5705 52.3495 33.9359C52.3495 32.3013 52.1541 30.6218 51.8873 29.349C51.6206 28.0762 51.2853 27.21 51.045 26.6687C50.8311 26.1881 50.6119 25.689 50.3663 25.5701C46.6403 26.5578 44.3006 27.453 40.4663 27.8464C40.2709 26.0824 37.4004 21.1892 36.397 19.6365C36.0774 19.1374 35.9718 19.0291 35.4833 18.9842C35.169 18.9552 34.7016 18.9525 34.2527 18.9605C33.8012 18.9525 33.3311 18.9552 33.0195 18.9842C32.531 19.0291 32.3673 19.1057 32.1032 19.6365L28.0365 27.8464C24.2022 27.453 21.8625 26.5578 18.1365 25.5701C17.8909 25.689 17.6717 26.1881 17.4578 26.6687C17.2175 27.21 16.8822 28.0762 16.6154 29.349C16.3487 30.6218 16.1533 32.3013 16.1533 33.9359C16.1533 35.5705 16.3487 37.1602 16.7131 38.7393C17.0776 40.3185 17.6083 41.8897 18.1603 43.0727C18.7095 44.2558 19.2799 45.0506 19.6707 45.4309C19.7949 45.5524 19.9031 45.6316 20.0087 45.6765C24.0966 43.4952 29.0426 42.2171 34.3715 42.2171C39.6477 42.2171 44.5488 43.4688 48.6129 45.6105Z" fill="white"/>
<path fill-rule="evenodd" clip-rule="evenodd" d="M48.9587 46.0884C49.0273 46.0409 49.1013 45.9802 49.1805 45.8983C49.5819 45.5022 50.1629 44.6704 50.7253 43.4293C51.2878 42.1908 51.8318 40.5456 52.2041 38.8899C52.5765 37.2342 52.7771 35.5705 52.7771 33.8567C52.7771 32.1455 52.5765 30.3868 52.3045 29.0533C52.0325 27.7197 51.6865 26.8113 51.4436 26.2435C51.2244 25.7418 51 25.2189 50.7491 25.0922C46.9412 26.1274 44.5487 27.0648 40.6273 27.4768C40.4292 25.6309 37.4927 20.5053 36.4708 18.876C36.1433 18.3558 36.0351 18.2422 35.5333 18.1947C35.2138 18.1656 34.7332 18.163 34.2764 18.1683C33.8169 18.163 33.3363 18.1656 33.0168 18.1947C32.515 18.2422 32.3487 18.3214 32.0793 18.876L27.9228 27.4768C24.0014 27.0648 21.6089 26.1274 17.801 25.0922C17.5501 25.2189 17.3257 25.7418 17.1065 26.2435C16.8609 26.8113 16.5176 27.7197 16.2456 29.0533C15.9736 30.3868 15.7729 32.1455 15.7729 33.8567C15.7729 35.5705 15.9736 37.2342 16.346 38.8899C16.7183 40.5456 17.2623 42.1908 17.8248 43.4293C18.3872 44.6704 18.9682 45.5022 19.3696 45.8983C19.4963 46.0277 19.6073 46.1096 19.7155 46.1571C23.8958 43.8729 28.9501 42.5341 34.3978 42.5341C39.7928 42.5341 44.8022 43.8438 48.9587 46.0884ZM48.6128 45.6105C48.6814 45.5656 48.7527 45.5075 48.8319 45.4309C49.2228 45.0506 49.7905 44.2558 50.3424 43.0728C50.8943 41.8897 51.4251 40.3185 51.7895 38.7394C52.1539 37.1602 52.3494 35.5705 52.3494 33.9359C52.3494 32.3013 52.1539 30.6218 51.8872 29.349C51.6205 28.0762 51.2852 27.21 51.0448 26.6687C50.8309 26.1881 50.6118 25.689 50.3662 25.5702C46.6402 26.5578 44.3005 27.453 40.4662 27.8464C40.2708 26.0825 37.4003 21.1892 36.3969 19.6339C36.0773 19.1374 35.9717 19.0291 35.4832 18.9842C35.1689 18.9552 34.7015 18.9526 34.2526 18.9605C33.801 18.9526 33.331 18.9552 33.0194 18.9842C32.5309 19.0291 32.3671 19.1057 32.1031 19.6339L28.0364 27.8464C24.2021 27.453 21.8624 26.5578 18.1364 25.5702C17.8908 25.689 17.6716 26.1881 17.4577 26.6687C17.2174 27.21 16.882 28.0762 16.6153 29.349C16.3486 30.6218 16.1532 32.3013 16.1532 33.9359C16.1532 35.5705 16.3486 37.1602 16.713 38.7394C17.0775 40.3185 17.6082 41.8897 18.1601 43.0728C18.7094 44.2558 19.2798 45.0506 19.6706 45.4309C19.7947 45.5524 19.903 45.6316 20.0086 45.6765C24.0965 43.4953 29.0425 42.2172 34.3714 42.2172C39.6476 42.2172 44.5487 43.4689 48.6128 45.6105Z" fill="#E7B652"/>
<path fill-rule="evenodd" clip-rule="evenodd" d="M34.1813 26.7083C35.7525 29.3199 35.9083 32.8215 35.9532 33.5107C36.2464 37.992 34.5088 37.5114 30.6797 37.7438C30.7458 37.9946 30.957 39.4549 31.0653 40.197C32.2298 40.0676 33.434 39.9989 34.6646 39.9989C35.7657 39.9989 36.8432 40.0544 37.8915 40.1574C38.0473 39.9487 38.1793 39.7348 38.1926 39.7269C38.7418 38.6495 38.9161 37.7174 39.1458 36.529C39.3492 34.9473 39.2858 33.5767 39.101 31.9791C38.8237 29.5919 38.1239 25.5411 36.7956 23.5104C36.8379 23.5104 36.0694 22.3458 35.9189 22.2243C35.6971 22.1425 32.8055 22.1557 32.7606 22.2428C31.5406 24.6591 30.2916 27.2496 29.2168 29.7266C29.6657 29.6922 32.795 29.8296 32.795 29.8269L32.7184 29.7715L34.1813 26.7083Z" fill="#E7B652"/>
<path fill-rule="evenodd" clip-rule="evenodd" d="M40.4345 29.238C41.8367 29.0162 43.701 28.6808 44.1394 28.6465C44.3216 29.0902 44.6094 29.7794 44.7784 30.3999C45.2538 32.1428 45.6895 34.192 45.6657 33.9623C45.8374 34.1735 46.1727 32.6604 46.3417 31.1129C46.4764 29.8692 46.5002 28.6518 46.4262 28.2768C47.6753 28.0524 48.6788 27.8569 49.6056 27.7064C49.912 28.562 50.1417 29.922 50.2579 30.5663C50.4005 31.3453 50.4956 32.6419 50.5325 33.3153C50.551 33.7008 50.5854 34.4429 50.5325 34.8099C50.5325 35.6101 50.3847 36.0669 50.2051 36.8221C50.0968 37.2684 49.7007 38.6944 49.1171 40.0412C48.5362 41.3853 47.8258 42.637 47.6304 42.9671C46.7669 42.497 45.8242 42.0719 44.8154 41.6995C45.0531 41.0552 45.37 40.0121 45.4228 40.0121L43.363 41.2189C43.1808 41.1582 43.5505 41.2744 43.363 41.2189C43.3208 40.7304 43.2838 40.0992 43.2495 40.0147C43.0197 40.2498 42.6606 40.6644 42.4044 40.9496C41.401 40.6908 40.3526 40.4795 39.2646 40.3237C39.402 40.0095 39.6634 39.4259 39.938 38.7763C40.4609 37.5298 40.8306 35.7817 40.9257 34.7571C40.9521 34.4693 40.9785 33.2123 40.8887 31.9949C40.7857 30.5716 40.5031 29.1509 40.4345 29.238Z" fill="#E7B652"/>
<path fill-rule="evenodd" clip-rule="evenodd" d="M19.1084 27.6563C18.5327 27.5427 17.6824 32.869 18.3188 35.956C18.95 39.0272 19.8716 40.9681 21.2421 43.2259C23.69 41.7946 26.8378 40.7542 30.3657 40.2815L29.6633 37.8732L28.0763 37.992C27.6247 36.6505 27.3025 35.2298 27.1652 33.7299C27.1362 32.1983 27.3184 30.6693 27.725 29.0215C26.6186 28.8631 25.5095 28.6571 24.403 28.4987C23.1566 32.0953 23.4682 35.4675 24.7146 39.0325L23.0035 39.6847C21.3583 35.6391 20.574 32.3409 22.2825 28.0788L20.7351 27.8676L19.1084 27.6563Z" fill="#E7B652"/>
<path fill-rule="evenodd" clip-rule="evenodd" d="M33.5609 31.7996V32.6816C34.1023 32.6816 34.5987 32.7212 35.1189 32.7212L35.1612 33.6797C34.67 33.8646 32.3409 34.6858 32.1693 34.81C32.1534 34.6172 32.0055 34.0864 31.958 33.8012L30.3577 33.7907C30.2891 33.1542 30.0699 32.4492 29.959 31.7599C31.1579 31.7599 32.3594 31.7996 33.5609 31.7996Z" fill="#E7B652"/>
<path d="M29.8001 52.9991L30.08 51.8451L30.2438 52.4736L30.5422 52.5502L30.97 52.0775L30.69 53.2315L31.1601 53.3556L31.6565 51.3091L31.1918 51.1876L30.5448 51.8979L30.2966 50.9552L29.8265 50.8311L29.3301 52.8777L29.8001 52.9991ZM32.792 53.5933L32.9795 51.4939L32.4831 51.4437L32.2956 53.5457L32.792 53.5933ZM34.4372 53.6857L34.4451 52.8565L35.0551 52.8618L35.0472 53.691L35.5463 53.6963L35.5648 51.5863L35.0657 51.5811L35.0578 52.4102L34.4504 52.405L34.4557 51.5758L33.9566 51.5705L33.9381 53.6804L34.4372 53.6857ZM37.437 53.4797C37.6589 53.448 37.8305 53.3609 37.9546 53.2183C38.0814 53.0731 38.1263 52.875 38.0919 52.6241L38.0893 52.5951L37.5955 52.669L37.5981 52.6954C37.6245 52.8777 37.5374 52.9859 37.3393 53.015C37.1598 53.0414 37.0568 52.9727 37.033 52.8064L36.93 52.0643C36.9089 51.9006 36.9881 51.8055 37.1703 51.7791C37.342 51.7527 37.4767 51.8161 37.5031 52.0062L37.5083 52.0353L38.0022 51.9613L37.9969 51.9323C37.9625 51.6814 37.8648 51.5071 37.7038 51.4068C37.5453 51.3064 37.3578 51.2695 37.136 51.3038C36.6184 51.3804 36.3755 51.6973 36.4415 52.1752L36.5339 52.8486C36.5999 53.3266 36.9195 53.559 37.437 53.4797ZM39.6843 52.8618L39.4519 52.067L39.6341 52.0115L40.2969 52.669L40.7511 52.5264L40.7036 52.3654L39.9457 51.6444L40.1702 50.6832L40.1226 50.5195L39.7001 50.6515L39.4994 51.5811L39.3278 51.6339L39.098 50.8417L38.6201 50.9895L39.2063 53.0097L39.6843 52.8618Z" fill="white"/>
<path fill-rule="evenodd" clip-rule="evenodd" d="M80.1875 49.2335H337.411C338.166 49.2335 338.784 49.8435 338.784 50.5934C338.784 51.3407 338.166 51.9507 337.411 51.9507H80.1875V49.2335Z" fill="#C5C6C6"/>
<path fill-rule="evenodd" clip-rule="evenodd" d="M80.1875 0.000152588H91.3656V35.7949H97.8142V0.000152588H108.541V35.7949H113.959V45.4493H80.1875C80.1875 30.2996 80.1875 15.1499 80.1875 0.000152588Z" fill="#E7B652"/>
<path fill-rule="evenodd" clip-rule="evenodd" d="M109.758 11.717H166.111C165.562 12.6122 162.343 19.5282 162.261 19.5229H174.345L174.712 18.6911L175.306 18.7148L175.113 18.5775L176.967 14.7538C178.377 18.7465 179.196 20.8855 179.671 25.3245H176.764V24.4135H176.661V23.307H163.399L164.814 30.9783H109.758V11.717ZM174.712 18.6911L176.732 14.0857L176.967 14.7538L175.113 18.5775L175.306 18.7148L174.712 18.6911ZM188.119 11.717H188.678C189.846 16.0134 190.577 20.6531 190.968 23.9725C191.258 26.4416 191.427 28.6862 191.385 30.9783H190.53C191.533 27.0304 189.719 15.6886 188.119 11.717ZM188.678 11.717H240.941V30.9783H191.385C191.427 28.6862 191.258 26.4416 190.968 23.9725C190.577 20.6531 189.846 16.0134 188.678 11.717ZM276.455 11.717H338.784V30.9783H276.455V11.717Z" fill="#C5C6C6"/>
<path d="M81.2122 62.1941C81.1382 62.0779 81.0696 61.9221 81.0062 61.7214C80.9428 61.5233 80.9111 61.3121 80.9111 61.0929C80.9111 60.6836 81.0036 60.3878 81.1884 60.2109C81.3706 60.0313 81.6109 59.9415 81.904 59.9415H88.7699C88.8438 60.0577 88.9125 60.2162 88.9758 60.4142C89.0392 60.6149 89.0709 60.8235 89.0709 61.0454C89.0709 61.4547 88.9785 61.7478 88.7936 61.9274C88.6114 62.1043 88.3711 62.1941 88.078 62.1941H86.3299V69.4718C86.2137 69.5009 86.0341 69.5326 85.7859 69.5643C85.5403 69.596 85.2947 69.6118 85.0544 69.6118C84.8115 69.6118 84.6002 69.5933 84.4153 69.5563C84.2331 69.5194 84.0773 69.456 83.9506 69.3609C83.8265 69.2659 83.7314 69.1338 83.668 68.9675C83.6047 68.7985 83.573 68.5793 83.573 68.3047V62.1941H81.2122ZM96.2668 65.7379C95.8047 65.5794 95.3848 65.421 95.0072 65.2573C94.6296 65.0962 94.3048 64.8981 94.0302 64.6658C93.7582 64.436 93.5469 64.1614 93.3937 63.8392C93.2406 63.5197 93.164 63.1289 93.164 62.6667C93.164 61.7742 93.5099 61.0612 94.1965 60.5251C94.8831 59.9891 95.847 59.7224 97.0855 59.7224C97.537 59.7224 97.9569 59.7541 98.3477 59.8174C98.7359 59.8782 99.0686 59.9759 99.3459 60.1079C99.6258 60.2399 99.8424 60.4063 100.001 60.6123C100.157 60.8156 100.236 61.0559 100.236 61.3279C100.236 61.5999 100.172 61.8349 100.048 62.0303C99.9216 62.2231 99.7684 62.3895 99.5915 62.5242C99.3591 62.3789 99.0501 62.2495 98.662 62.1386C98.2738 62.0303 97.8486 61.9749 97.3865 61.9749C96.9138 61.9749 96.5679 62.0409 96.3461 62.1703C96.1269 62.3023 96.016 62.4687 96.016 62.6667C96.016 62.8252 96.0846 62.9519 96.2193 63.0523C96.3566 63.1526 96.5626 63.2451 96.8346 63.3296L97.6691 63.5963C98.6567 63.9105 99.4146 64.3119 99.9453 64.8004C100.476 65.289 100.74 65.9544 100.74 66.7942C100.74 67.6867 100.389 68.4076 99.6866 68.9595C98.9815 69.5115 97.9463 69.7861 96.5837 69.7861C96.1005 69.7861 95.6516 69.7465 95.237 69.6673C94.8224 69.588 94.458 69.4745 94.149 69.3213C93.84 69.1682 93.5971 68.9807 93.4254 68.7536C93.2511 68.5291 93.164 68.2677 93.164 67.9746C93.164 67.6709 93.2538 67.4095 93.4334 67.1956C93.6103 66.979 93.8057 66.8153 94.0143 66.6991C94.3101 66.9288 94.6692 67.1295 95.0944 67.2985C95.5195 67.4649 95.9843 67.5494 96.4887 67.5494C97.0036 67.5494 97.3654 67.4702 97.574 67.3117C97.7852 67.1559 97.8909 66.9711 97.8909 66.7625C97.8909 66.5512 97.8064 66.3928 97.6374 66.2819C97.4684 66.171 97.2333 66.0627 96.9297 65.9597L96.2668 65.7379ZM105.388 61.4547C105.388 61.0031 105.517 60.6466 105.781 60.3825C106.043 60.1211 106.399 59.9891 106.851 59.9891H112.048C112.122 60.1053 112.188 60.2584 112.246 60.4459C112.304 60.636 112.333 60.8341 112.333 61.0454C112.333 61.4441 112.246 61.7267 112.071 61.8957C111.9 62.062 111.67 62.1465 111.388 62.1465H108.063V63.6121H111.607C111.681 63.7283 111.747 63.8762 111.805 64.061C111.863 64.2432 111.892 64.4413 111.892 64.6526C111.892 65.0513 111.807 65.3339 111.638 65.5029C111.472 65.6692 111.245 65.7537 110.962 65.7537H108.063V67.4068H112.111C112.185 67.523 112.251 67.6762 112.309 67.8637C112.367 68.0538 112.396 68.2518 112.396 68.4631C112.396 68.8618 112.309 69.147 112.135 69.3213C111.963 69.4956 111.733 69.5801 111.451 69.5801H106.851C106.399 69.5801 106.043 69.4507 105.781 69.1866C105.517 68.9252 105.388 68.5687 105.388 68.1172V61.4547ZM125.814 69.2025C125.666 69.3504 125.455 69.4639 125.177 69.5405C124.897 69.6197 124.565 69.6593 124.176 69.6593C123.788 69.6593 123.419 69.6012 123.073 69.4877C122.727 69.3715 122.444 69.0916 122.222 68.6506L120.664 65.4712C120.506 65.1437 120.366 64.8374 120.239 64.5496C120.112 64.2591 119.975 63.9264 119.83 63.5487L119.735 63.5646C119.777 64.1323 119.801 64.708 119.806 65.2969C119.811 65.8858 119.814 66.4641 119.814 67.0292V69.4718C119.698 69.5009 119.521 69.5326 119.286 69.5643C119.048 69.596 118.816 69.6118 118.586 69.6118C118.354 69.6118 118.15 69.596 117.971 69.5643C117.791 69.5326 117.646 69.4718 117.53 69.3768C117.414 69.2817 117.324 69.1523 117.263 68.9912C117.2 68.8275 117.168 68.6163 117.168 68.3522V60.4776C117.313 60.269 117.54 60.1105 117.844 60.0049C118.15 59.8993 118.475 59.8491 118.821 59.8491C119.209 59.8491 119.579 59.9072 119.93 60.0287C120.284 60.1502 120.564 60.4248 120.773 60.8552L122.349 64.0373C122.508 64.3621 122.647 64.671 122.774 64.9589C122.901 65.2467 123.036 65.5794 123.184 65.9597L123.263 65.9439C123.221 65.3761 123.194 64.8084 123.184 64.2432C123.173 63.6755 123.168 63.1077 123.168 62.54V59.9891C123.284 59.9574 123.458 59.9257 123.696 59.894C123.931 59.8623 124.166 59.8491 124.396 59.8491C124.858 59.8491 125.209 59.9283 125.452 60.0921C125.692 60.2558 125.814 60.5938 125.814 61.1087V69.2025ZM130.57 62.1941C130.496 62.0779 130.43 61.9221 130.366 61.7214C130.303 61.5233 130.271 61.3121 130.271 61.0929C130.271 60.6836 130.364 60.3878 130.546 60.2109C130.731 60.0313 130.968 59.9415 131.264 59.9415H138.13C138.204 60.0577 138.273 60.2162 138.336 60.4142C138.397 60.6149 138.428 60.8235 138.428 61.0454C138.428 61.4547 138.339 61.7478 138.154 61.9274C137.969 62.1043 137.731 62.1941 137.438 62.1941H135.69V69.4718C135.574 69.5009 135.392 69.5326 135.146 69.5643C134.898 69.596 134.655 69.6118 134.412 69.6118C134.172 69.6118 133.96 69.5933 133.775 69.5563C133.591 69.5194 133.437 69.456 133.311 69.3609C133.184 69.2659 133.091 69.1338 133.028 68.9675C132.965 68.7985 132.933 68.5793 132.933 68.3047V62.1941H130.57ZM145.659 66.4456V69.4718C145.542 69.5009 145.363 69.5326 145.115 69.5643C144.869 69.596 144.623 69.6118 144.383 69.6118C144.14 69.6118 143.929 69.5933 143.744 69.5563C143.562 69.5194 143.409 69.456 143.287 69.3609C143.168 69.2659 143.076 69.1338 143.013 68.9675C142.949 68.7985 142.918 68.5793 142.918 68.3047V60.8869C142.918 60.6677 142.978 60.4961 143.1 60.3746C143.219 60.2558 143.385 60.1581 143.596 60.0841C143.953 59.9574 144.367 59.8676 144.84 59.8095C145.313 59.7514 145.814 59.7224 146.35 59.7224C147.8 59.7224 148.893 60.026 149.628 60.636C150.362 61.2434 150.729 62.0673 150.729 63.1077C150.729 63.76 150.562 64.3145 150.227 64.7767C149.889 65.2388 149.49 65.5953 149.028 65.8488C149.406 66.3637 149.781 66.847 150.148 67.2985C150.515 67.7501 150.803 68.1594 151.014 68.5265C150.908 68.8935 150.716 69.1734 150.438 69.3689C150.161 69.5616 149.847 69.6593 149.501 69.6593C149.271 69.6593 149.07 69.6329 148.904 69.5801C148.735 69.5299 148.587 69.456 148.46 69.3609C148.336 69.2659 148.22 69.1497 148.114 69.015C148.009 68.8777 147.911 68.7298 147.816 68.574L146.493 66.4456H145.659ZM146.651 64.3515C147.05 64.3515 147.364 64.2485 147.597 64.0452C147.827 63.8392 147.943 63.5382 147.943 63.1394C147.943 62.7407 147.813 62.4396 147.557 62.2337C147.298 62.0303 146.892 61.9274 146.335 61.9274C146.179 61.9274 146.052 61.9326 145.957 61.9432C145.862 61.9538 145.759 61.9696 145.643 61.9907V64.3515H146.651ZM155.186 64.745C155.186 63.9264 155.316 63.2028 155.572 62.5717C155.831 61.9432 156.182 61.4151 156.628 60.9899C157.074 60.5647 157.6 60.2426 158.202 60.0208C158.807 59.8016 159.459 59.6907 160.164 59.6907C160.866 59.6907 161.521 59.8016 162.123 60.0208C162.728 60.2426 163.256 60.5647 163.708 60.9899C164.159 61.4151 164.513 61.9432 164.769 62.5717C165.028 63.2028 165.155 63.9264 165.155 64.745C165.155 65.5636 165.031 66.2924 164.777 66.9262C164.526 67.5626 164.178 68.0934 163.732 68.5185C163.285 68.9437 162.757 69.2659 162.147 69.4877C161.54 69.7069 160.877 69.8178 160.164 69.8178C159.451 69.8178 158.788 69.7042 158.178 69.4798C157.571 69.2527 157.045 68.9252 156.604 68.4948C156.163 68.0643 155.817 67.5336 155.564 66.9024C155.313 66.274 155.186 65.553 155.186 64.745ZM158.022 64.745C158.022 65.7009 158.215 66.4165 158.603 66.8866C158.994 67.3593 159.512 67.5969 160.164 67.5969C160.824 67.5969 161.35 67.3593 161.738 66.8866C162.126 66.4165 162.321 65.7009 162.321 64.745C162.321 63.8023 162.129 63.0919 161.746 62.6192C161.363 62.1465 160.84 61.9115 160.18 61.9115C159.528 61.9115 159.005 62.1439 158.611 62.6113C158.218 63.0787 158.022 63.789 158.022 64.745ZM169.882 61.4547C169.882 61.0031 170.014 60.6466 170.275 60.3825C170.537 60.1211 170.893 59.9891 171.345 59.9891H176.544C176.616 60.1053 176.682 60.2584 176.74 60.4459C176.798 60.636 176.827 60.8341 176.827 61.0454C176.827 61.4441 176.74 61.7267 176.568 61.8957C176.394 62.062 176.164 62.1465 175.881 62.1465H172.559V63.6121H176.103C176.175 63.7283 176.241 63.8762 176.299 64.061C176.357 64.2432 176.386 64.4413 176.386 64.6526C176.386 65.0513 176.301 65.3339 176.135 65.5029C175.966 65.6692 175.742 65.7537 175.456 65.7537H172.559V67.4068H176.608C176.679 67.523 176.745 67.6762 176.803 67.8637C176.861 68.0538 176.89 68.2518 176.89 68.4631C176.89 68.8618 176.803 69.147 176.629 69.3213C176.457 69.4956 176.227 69.5801 175.945 69.5801H171.345C170.893 69.5801 170.537 69.4507 170.275 69.1866C170.014 68.9252 169.882 68.5687 169.882 68.1172V61.4547ZM190.308 69.2025C190.162 69.3504 189.949 69.4639 189.671 69.5405C189.391 69.6197 189.059 69.6593 188.67 69.6593C188.282 69.6593 187.915 69.6012 187.567 69.4877C187.221 69.3715 186.938 69.0916 186.716 68.6506L185.158 65.4712C185 65.1437 184.86 64.8374 184.733 64.5496C184.606 64.2591 184.472 63.9264 184.324 63.5487L184.229 63.5646C184.271 64.1323 184.295 64.708 184.3 65.2969C184.305 65.8858 184.308 66.4641 184.308 67.0292V69.4718C184.192 69.5009 184.017 69.5326 183.78 69.5643C183.545 69.596 183.31 69.6118 183.08 69.6118C182.848 69.6118 182.644 69.596 182.465 69.5643C182.288 69.5326 182.14 69.4718 182.024 69.3768C181.908 69.2817 181.82 69.1523 181.757 68.9912C181.694 68.8275 181.662 68.6163 181.662 68.3522V60.4776C181.81 60.269 182.034 60.1105 182.338 60.0049C182.644 59.8993 182.969 59.8491 183.315 59.8491C183.703 59.8491 184.076 59.9072 184.427 60.0287C184.778 60.1502 185.058 60.4248 185.269 60.8552L186.843 64.0373C187.001 64.3621 187.144 64.671 187.268 64.9589C187.395 65.2467 187.532 65.5794 187.677 65.9597L187.757 65.9439C187.714 65.3761 187.688 64.8084 187.677 64.2432C187.667 63.6755 187.662 63.1077 187.662 62.54V59.9891C187.778 59.9574 187.955 59.9257 188.19 59.894C188.427 59.8623 188.66 59.8491 188.892 59.8491C189.352 59.8491 189.706 59.9283 189.946 60.0921C190.189 60.2558 190.308 60.5938 190.308 61.1087V69.2025ZM195.505 61.4547C195.505 61.0031 195.637 60.6466 195.901 60.3825C196.162 60.1211 196.519 59.9891 196.97 59.9891H202.167C202.241 60.1053 202.307 60.2584 202.365 60.4459C202.423 60.636 202.452 60.8341 202.452 61.0454C202.452 61.4441 202.365 61.7267 202.191 61.8957C202.019 62.062 201.789 62.1465 201.507 62.1465H198.182V63.6121H201.726C201.8 63.7283 201.866 63.8762 201.924 64.061C201.982 64.2432 202.011 64.4413 202.011 64.6526C202.011 65.0513 201.927 65.3339 201.758 65.5029C201.591 65.6692 201.364 65.7537 201.082 65.7537H198.182V67.4068H202.23C202.304 67.523 202.37 67.6762 202.428 67.8637C202.487 68.0538 202.513 68.2518 202.513 68.4631C202.513 68.8618 202.428 69.147 202.254 69.3213C202.083 69.4956 201.853 69.5801 201.57 69.5801H196.97C196.519 69.5801 196.162 69.4507 195.901 69.1866C195.637 68.9252 195.505 68.5687 195.505 68.1172V61.4547ZM210.026 66.4456V69.4718C209.912 69.5009 209.73 69.5326 209.484 69.5643C209.236 69.596 208.993 69.6118 208.75 69.6118C208.51 69.6118 208.296 69.5933 208.114 69.5563C207.929 69.5194 207.779 69.456 207.657 69.3609C207.536 69.2659 207.443 69.1338 207.38 68.9675C207.319 68.7985 207.287 68.5793 207.287 68.3047V60.8869C207.287 60.6677 207.348 60.4961 207.467 60.3746C207.588 60.2558 207.755 60.1581 207.963 60.0841C208.32 59.9574 208.734 59.8676 209.207 59.8095C209.68 59.7514 210.184 59.7224 210.72 59.7224C212.17 59.7224 213.261 60.026 213.995 60.636C214.732 61.2434 215.099 62.0673 215.099 63.1077C215.099 63.76 214.93 64.3145 214.594 64.7767C214.259 65.2388 213.86 65.5953 213.398 65.8488C213.776 66.3637 214.148 66.847 214.515 67.2985C214.882 67.7501 215.173 68.1594 215.381 68.5265C215.276 68.8935 215.085 69.1734 214.808 69.3689C214.528 69.5616 214.217 69.6593 213.871 69.6593C213.638 69.6593 213.44 69.6329 213.271 69.5801C213.102 69.5299 212.957 69.456 212.83 69.3609C212.703 69.2659 212.59 69.1497 212.484 69.015C212.379 68.8777 212.278 68.7298 212.186 68.574L210.863 66.4456H210.026ZM211.019 64.3515C211.417 64.3515 211.734 64.2485 211.964 64.0452C212.194 63.8392 212.31 63.5382 212.31 63.1394C212.31 62.7407 212.183 62.4396 211.924 62.2337C211.668 62.0303 211.262 61.9274 210.704 61.9274C210.546 61.9274 210.419 61.9326 210.327 61.9432C210.232 61.9538 210.126 61.9696 210.01 61.9907V64.3515H211.019ZM228.674 67.9746C228.674 68.2994 228.616 68.5423 228.5 68.6981C228.387 68.8566 228.202 69.0097 227.951 69.155C227.803 69.2395 227.618 69.3213 227.399 69.4005C227.177 69.4798 226.937 69.5458 226.675 69.6039C226.411 69.662 226.137 69.7069 225.846 69.7386C225.558 69.7702 225.273 69.7861 224.988 69.7861C224.233 69.7861 223.525 69.6831 222.862 69.4798C222.202 69.2738 221.626 68.9648 221.138 68.5502C220.649 68.1356 220.264 67.6181 219.981 66.9975C219.696 66.3796 219.556 65.6587 219.556 64.84C219.556 63.9792 219.709 63.2292 220.021 62.5875C220.33 61.9485 220.739 61.4151 221.249 60.9899C221.758 60.5647 222.339 60.2479 222.997 60.0366C223.652 59.828 224.328 59.7224 225.02 59.7224C226.018 59.7224 226.807 59.8808 227.391 60.203C227.975 60.5225 228.265 60.9397 228.265 61.4547C228.265 61.7267 228.196 61.9643 228.059 62.1624C227.924 62.3631 227.766 62.5189 227.589 62.6351C227.325 62.4793 226.998 62.3235 226.604 62.1703C226.211 62.0198 225.767 61.9432 225.273 61.9432C224.391 61.9432 223.689 62.1941 223.171 62.6984C222.651 63.2028 222.39 63.9 222.39 64.7925C222.39 65.2758 222.461 65.693 222.603 66.0442C222.743 66.3981 222.936 66.6859 223.176 66.9104C223.419 67.1375 223.697 67.3065 224.014 67.4147C224.328 67.5256 224.663 67.5811 225.02 67.5811C225.252 67.5811 225.455 67.56 225.635 67.5177C225.815 67.4755 225.949 67.4279 226.044 67.3751V65.8963H224.36C224.296 65.7801 224.235 65.627 224.177 65.4395C224.119 65.2494 224.09 65.0513 224.09 64.84C224.09 64.4624 224.177 64.1904 224.352 64.0214C224.523 63.8524 224.748 63.7706 225.02 63.7706H227.682C227.998 63.7706 228.241 63.8551 228.416 64.0294C228.587 64.2036 228.674 64.4466 228.674 64.7608V67.9746ZM233.164 64.745C233.164 63.9264 233.293 63.2028 233.549 62.5717C233.805 61.9432 234.157 61.4151 234.603 60.9899C235.049 60.5647 235.575 60.2426 236.179 60.0208C236.781 59.8016 237.436 59.6907 238.139 59.6907C238.844 59.6907 239.496 59.8016 240.101 60.0208C240.706 60.2426 241.231 60.5647 241.683 60.9899C242.134 61.4151 242.491 61.9432 242.747 62.5717C243.003 63.2028 243.132 63.9264 243.132 64.745C243.132 65.5636 243.006 66.2924 242.755 66.9262C242.504 67.5626 242.153 68.0934 241.706 68.5185C241.26 68.9437 240.735 69.2659 240.125 69.4877C239.515 69.7069 238.854 69.8178 238.139 69.8178C237.426 69.8178 236.766 69.7042 236.156 69.4798C235.546 69.2527 235.023 68.9252 234.582 68.4948C234.141 68.0643 233.792 67.5336 233.541 66.9024C233.288 66.274 233.164 65.553 233.164 64.745ZM235.997 64.745C235.997 65.7009 236.193 66.4165 236.581 66.8866C236.969 67.3593 237.489 67.5969 238.139 67.5969C238.802 67.5969 239.327 67.3593 239.715 66.8866C240.103 66.4165 240.299 65.7009 240.299 64.745C240.299 63.8023 240.106 63.0919 239.723 62.6192C239.34 62.1465 238.817 61.9115 238.155 61.9115C237.505 61.9115 236.982 62.1439 236.589 62.6113C236.195 63.0787 235.997 63.789 235.997 64.745Z" fill="#878786"/>
<path d="M254.58 67.3223C254.44 67.4411 254.263 67.5336 254.044 67.6049C253.825 67.6735 253.568 67.7079 253.281 67.7079C252.895 67.7079 252.578 67.6603 252.327 67.5626C252.077 67.4675 251.913 67.3012 251.839 67.0662C251.538 66.1261 251.292 65.3629 251.099 64.782C250.909 64.1984 250.759 63.6887 250.651 63.2503H250.571C250.54 63.8815 250.516 64.4545 250.5 64.9747C250.484 65.4923 250.474 65.9967 250.466 66.4878C250.46 66.9817 250.45 67.4781 250.434 67.9798C250.418 68.4816 250.394 69.0388 250.363 69.6488C250.223 69.7016 250.043 69.7465 249.819 69.7834C249.594 69.8204 249.37 69.8415 249.145 69.8415C248.673 69.8415 248.308 69.765 248.047 69.6171C247.783 69.4666 247.653 69.1946 247.653 68.7985L248.118 60.6202C248.203 60.4802 248.39 60.3324 248.678 60.1713C248.968 60.0102 249.375 59.931 249.898 59.931C250.466 59.931 250.909 60.0181 251.229 60.195C251.548 60.372 251.783 60.6572 251.934 61.0533C252.029 61.3094 252.135 61.6052 252.246 61.9353C252.359 62.2654 252.47 62.6087 252.584 62.9625C252.694 63.3137 252.805 63.6649 252.911 64.0109C253.019 64.3594 253.114 64.671 253.201 64.951H253.281C253.537 64.0505 253.793 63.1843 254.052 62.3446C254.308 61.5048 254.543 60.8024 254.757 60.2347C254.918 60.1502 255.121 60.0789 255.375 60.0181C255.626 59.96 255.906 59.931 256.214 59.931C256.74 59.931 257.168 60.0076 257.498 60.1634C257.831 60.3192 258.021 60.541 258.076 60.8288C258.118 61.0427 258.163 61.3702 258.211 61.8138C258.261 62.2574 258.311 62.7592 258.364 63.3137C258.417 63.8709 258.47 64.4571 258.525 65.0777C258.578 65.6983 258.628 66.2951 258.676 66.8655C258.726 67.4385 258.765 67.9614 258.797 68.4367C258.829 68.912 258.85 69.2791 258.86 69.5352C258.681 69.6435 258.491 69.7201 258.293 69.7676C258.095 69.8151 257.841 69.8415 257.53 69.8415C257.123 69.8415 256.782 69.7702 256.505 69.6329C256.225 69.493 256.077 69.221 256.056 68.8143C255.99 67.6498 255.95 66.6014 255.935 65.6719C255.919 64.7423 255.895 63.9607 255.863 63.3296H255.781C255.676 63.7468 255.52 64.2697 255.317 64.9008C255.113 65.5319 254.868 66.34 254.58 67.3223ZM263.368 64.8374C263.368 64.0029 263.498 63.2662 263.759 62.6245C264.023 61.9828 264.38 61.4467 264.834 61.0137C265.288 60.5806 265.824 60.2505 266.437 60.026C267.052 59.8016 267.717 59.6907 268.433 59.6907C269.151 59.6907 269.817 59.8016 270.429 60.026C271.045 60.2505 271.583 60.5806 272.043 61.0137C272.502 61.4467 272.861 61.9828 273.123 62.6245C273.387 63.2662 273.516 64.0029 273.516 64.8374C273.516 65.6719 273.39 66.4113 273.133 67.0582C272.875 67.7052 272.521 68.2439 272.067 68.677C271.612 69.1101 271.074 69.4402 270.456 69.6646C269.835 69.8891 269.162 70 268.433 70C267.707 70 267.033 69.8864 266.413 69.6567C265.795 69.427 265.259 69.0916 264.81 68.6532C264.361 68.2149 264.007 67.6762 263.751 67.0345C263.495 66.3928 263.368 65.6613 263.368 64.8374ZM266.254 64.8374C266.254 65.8092 266.452 66.538 266.846 67.0186C267.242 67.4992 267.77 67.7395 268.433 67.7395C269.109 67.7395 269.642 67.4992 270.039 67.0186C270.432 66.538 270.63 65.8092 270.63 64.8374C270.63 63.8762 270.435 63.1526 270.046 62.672C269.656 62.1914 269.122 61.9511 268.449 61.9511C267.786 61.9511 267.255 62.1888 266.854 62.6641C266.455 63.1394 266.254 63.8656 266.254 64.8374ZM287.132 69.3741C286.981 69.5247 286.765 69.6409 286.482 69.7201C286.197 69.7993 285.859 69.8415 285.463 69.8415C285.067 69.8415 284.694 69.7808 284.341 69.6646C283.987 69.5458 283.699 69.2632 283.474 68.8143L281.887 65.5742C281.726 65.2441 281.584 64.9298 281.454 64.6367C281.325 64.3436 281.188 64.0029 281.037 63.62L280.942 63.6359C280.984 64.2116 281.008 64.8004 281.013 65.3999C281.019 65.9967 281.021 66.5856 281.021 67.1639V69.6488C280.905 69.6805 280.726 69.7121 280.485 69.7438C280.245 69.7755 280.005 69.7914 279.772 69.7914C279.535 69.7914 279.329 69.7755 279.146 69.7438C278.964 69.7121 278.814 69.6488 278.697 69.5511C278.579 69.456 278.489 69.324 278.423 69.1576C278.359 68.9939 278.328 68.7773 278.328 68.5106V60.4908C278.478 60.2796 278.708 60.1185 279.017 60.0102C279.329 59.9046 279.659 59.8518 280.013 59.8518C280.406 59.8518 280.784 59.9125 281.143 60.034C281.499 60.1581 281.787 60.438 281.998 60.8764L283.604 64.1165C283.762 64.4466 283.908 64.7608 284.037 65.0539C284.164 65.3471 284.304 65.6877 284.452 66.0733L284.533 66.0574C284.491 65.4791 284.465 64.9008 284.452 64.3251C284.441 63.7468 284.438 63.1685 284.438 62.5928V59.9944C284.555 59.9627 284.734 59.931 284.974 59.8993C285.215 59.8676 285.452 59.8518 285.687 59.8518C286.157 59.8518 286.517 59.9336 286.762 60.1C287.008 60.2637 287.132 60.6096 287.132 61.1325V69.3741ZM291.972 62.239C291.898 62.1228 291.83 61.9617 291.764 61.7583C291.7 61.555 291.669 61.3411 291.669 61.1167C291.669 60.6994 291.761 60.401 291.949 60.2188C292.136 60.0366 292.379 59.9468 292.677 59.9468H299.67C299.744 60.063 299.815 60.2241 299.879 60.4274C299.942 60.6308 299.974 60.8447 299.974 61.0691C299.974 61.4864 299.881 61.7848 299.694 61.967C299.506 62.1492 299.263 62.239 298.965 62.239H297.185V69.6488C297.066 69.6805 296.881 69.7121 296.63 69.7438C296.38 69.7755 296.131 69.7914 295.886 69.7914C295.64 69.7914 295.424 69.7729 295.236 69.7359C295.049 69.6989 294.89 69.6329 294.763 69.5352C294.634 69.4402 294.539 69.3055 294.476 69.1338C294.41 68.9622 294.378 68.7404 294.378 68.4605V62.239H291.972ZM306.612 60.2848C306.795 60.1766 307.069 60.0762 307.439 59.9785C307.809 59.8834 308.178 59.8359 308.553 59.8359C309.087 59.8359 309.559 59.9125 309.971 60.0683C310.383 60.2215 310.647 60.4644 310.766 60.7971C310.959 61.3517 311.168 61.9986 311.392 62.738C311.616 63.4748 311.841 64.2353 312.065 65.0223C312.29 65.8065 312.509 66.5829 312.723 67.3461C312.937 68.1119 313.124 68.7879 313.283 69.3741C313.156 69.5247 312.963 69.6461 312.707 69.7359C312.448 69.8257 312.145 69.8732 311.793 69.8732C311.535 69.8732 311.318 69.8521 311.144 69.8072C310.967 69.765 310.822 69.7016 310.711 69.6171C310.597 69.5299 310.507 69.419 310.436 69.2791C310.367 69.1391 310.307 68.9807 310.254 68.7985L309.963 67.692H307.061C306.977 68.0115 306.892 68.3443 306.805 68.6849C306.721 69.0282 306.633 69.3583 306.549 69.6805C306.398 69.7333 306.243 69.7782 306.076 69.8151C305.91 69.8547 305.709 69.8732 305.474 69.8732C304.93 69.8732 304.526 69.7782 304.265 69.5907C304.003 69.4058 303.871 69.1444 303.871 68.8143C303.871 68.6638 303.892 68.5159 303.935 68.3654C303.977 68.2149 304.027 68.0379 304.08 67.8346C304.154 67.5468 304.259 67.1903 304.392 66.7625C304.526 66.3347 304.674 65.8726 304.833 65.3735C304.994 64.877 305.165 64.3674 305.347 63.8445C305.527 63.319 305.699 62.8252 305.86 62.3604C306.021 61.8957 306.166 61.4811 306.301 61.1167C306.433 60.7549 306.538 60.475 306.612 60.2848ZM308.537 62.3525C308.387 62.8014 308.221 63.3005 308.033 63.8524C307.846 64.4017 307.677 64.9615 307.526 65.5266H309.514C309.367 64.951 309.213 64.3858 309.058 63.8366C308.904 63.2847 308.762 62.7909 308.632 62.3525H308.537ZM321.701 62.239H317.756C317.682 62.1228 317.614 61.9617 317.55 61.7583C317.484 61.555 317.452 61.3411 317.452 61.1167C317.452 60.6994 317.545 60.401 317.732 60.2188C317.92 60.0366 318.163 59.9468 318.464 59.9468H324.445C324.915 60.3324 325.15 60.8447 325.15 61.4864C325.15 61.7531 325.087 62.0171 324.965 62.2812C324.841 62.5426 324.685 62.7909 324.493 63.0259L320.851 67.42H324.957C325.031 67.5362 325.103 67.6973 325.166 67.9006C325.229 68.104 325.261 68.3179 325.261 68.5423C325.261 68.9595 325.169 69.2579 324.981 69.4402C324.794 69.6224 324.551 69.7121 324.252 69.7121H317.933C317.751 69.5616 317.603 69.3583 317.484 69.1021C317.368 68.846 317.307 68.5529 317.307 68.2202C317.307 67.9534 317.378 67.6814 317.516 67.4042C317.656 67.1243 317.822 66.8681 318.015 66.6331L321.701 62.239ZM338.684 69.6488C338.565 69.6805 338.38 69.7121 338.129 69.7438C337.878 69.7755 337.63 69.7914 337.384 69.7914C337.139 69.7914 336.922 69.7729 336.735 69.7359C336.547 69.6989 336.389 69.6329 336.262 69.5352C336.133 69.4402 336.038 69.3055 335.974 69.1338C335.908 68.9622 335.877 68.7404 335.877 68.4605V65.9597H332.798V69.6488C332.681 69.6805 332.497 69.7121 332.246 69.7438C331.995 69.7755 331.744 69.7914 331.498 69.7914C331.253 69.7914 331.036 69.7729 330.849 69.7359C330.664 69.6989 330.505 69.6329 330.376 69.5352C330.249 69.4402 330.152 69.3055 330.088 69.1338C330.025 68.9622 329.991 68.7404 329.991 68.4605V59.9944C330.109 59.9732 330.297 59.9442 330.553 59.9072C330.809 59.8702 331.055 59.8518 331.29 59.8518C331.535 59.8518 331.754 59.8702 331.939 59.9072C332.127 59.9442 332.285 60.0102 332.415 60.1079C332.541 60.203 332.639 60.3376 332.702 60.5067C332.766 60.6783 332.798 60.9028 332.798 61.1827V63.7468H335.877V59.9944C335.995 59.9732 336.18 59.9442 336.439 59.9072C336.695 59.8702 336.941 59.8518 337.176 59.8518C337.421 59.8518 337.638 59.8702 337.825 59.9072C338.013 59.9442 338.169 60.0102 338.298 60.1079C338.428 60.203 338.523 60.3376 338.586 60.5067C338.652 60.6783 338.684 60.9028 338.684 61.1827V69.6488Z" fill="#878786"/>
<path d="M192.89 16.7422H195.7V20.9093H199.37V16.7422H202.18V27.8543H199.37V23.41H195.7V27.8543H192.89V16.7422ZM210.374 27.8543H204.203V16.7422H210.374V19.243H207.042V20.9409H210.266V23.4417H207.042V25.3536H210.374V27.8543ZM214.974 21.8678H216.099C217.222 21.8678 217.781 21.4242 217.781 20.5396C217.781 19.676 217.211 19.243 216.07 19.243H214.974V21.8678ZM214.974 24.3659V27.8543H212.136V16.7422H216.271C217.494 16.7422 218.486 17.0327 219.25 17.6084C220.081 18.2553 220.499 19.1717 220.499 20.3547C220.499 21.6196 220.145 22.6046 219.435 23.3097C218.724 24.0147 217.737 24.3659 216.472 24.3659H214.974ZM224.526 27.8543H221.687V16.7422H227.568V19.243H224.526V27.8543ZM236.441 22.2983C236.441 21.4083 236.158 20.6425 235.593 19.9956C235.025 19.3512 234.307 19.0264 233.43 19.0264C232.556 19.0264 231.835 19.3512 231.27 19.9956C230.705 20.6425 230.422 21.4083 230.422 22.2983C230.422 23.1882 230.7 23.9487 231.254 24.5772C231.833 25.24 232.556 25.5701 233.43 25.5701C234.307 25.5701 235.031 25.24 235.606 24.5772C236.163 23.9487 236.441 23.1882 236.441 22.2983ZM239.279 22.2983C239.279 23.9355 238.717 25.306 237.589 26.4125C236.464 27.5163 235.078 28.0708 233.43 28.0708C231.785 28.0708 230.399 27.5163 229.271 26.4125C228.146 25.306 227.581 23.9355 227.581 22.2983C227.581 20.6637 228.146 19.2931 229.271 18.1867C230.399 17.0802 231.785 16.5283 233.43 16.5283C235.078 16.5283 236.464 17.0802 237.589 18.1867C238.717 19.2931 239.279 20.6637 239.279 22.2983Z" fill="#0A295D"/>
<path d="M119.875 27.8543H113.701V16.7422H119.875V19.243H116.542V20.9409H119.766V23.4417H116.542V25.3536H119.875V27.8543ZM121.649 16.7422H124.459V20.9093H128.132V16.7422H130.939V27.8543H128.132V23.41H124.459V27.8543H121.649V16.7422ZM137.221 27.8543H134.38V19.243H132.191V16.7422H139.413V19.243H137.221V27.8543ZM143.472 21.8678H144.597C145.719 21.8678 146.279 21.4242 146.279 20.5396C146.279 19.676 145.709 19.243 144.565 19.243H143.472V21.8678ZM143.472 24.3659V27.8543H140.631V16.7422H144.769C145.991 16.7422 146.984 17.0327 147.745 17.6084C148.579 18.2553 148.996 19.1717 148.996 20.3547C148.996 21.6196 148.64 22.6046 147.932 23.3097C147.222 24.0147 146.234 24.3659 144.967 24.3659H143.472ZM158.579 22.2983C158.579 21.4083 158.297 20.6425 157.732 19.9956C157.164 19.3512 156.446 19.0264 155.569 19.0264C154.695 19.0264 153.977 19.3512 153.409 19.9956C152.844 20.6425 152.561 21.4083 152.561 22.2983C152.561 23.1882 152.839 23.9487 153.393 24.5772C153.971 25.24 154.695 25.5701 155.569 25.5701C156.446 25.5701 157.169 25.24 157.745 24.5772C158.302 23.9487 158.579 23.1882 158.579 22.2983ZM161.418 22.2983C161.418 23.9355 160.856 25.306 159.728 26.4125C158.603 27.5163 157.217 28.0708 155.569 28.0708C153.924 28.0708 152.538 27.5163 151.41 26.4125C150.285 25.306 149.72 23.9355 149.72 22.2983C149.72 20.6637 150.285 19.2931 151.41 18.1867C152.538 17.0802 153.924 16.5283 155.569 16.5283C157.217 16.5283 158.603 17.0802 159.728 18.1867C160.856 19.2931 161.418 20.6637 161.418 22.2983Z" fill="#0A295D"/>
<path d="M121.958 38.7314C122.024 38.7182 122.13 38.7024 122.272 38.6812C122.418 38.6601 122.555 38.6495 122.69 38.6495C122.827 38.6495 122.948 38.6601 123.054 38.6812C123.16 38.7024 123.249 38.7393 123.321 38.7948C123.392 38.8476 123.447 38.9242 123.482 39.0192C123.519 39.1143 123.537 39.2411 123.537 39.3995V42.74C123.537 43.2761 123.384 43.6774 123.078 43.9442C122.769 44.2135 122.317 44.3455 121.723 44.3455C121.409 44.3455 121.155 44.298 120.965 44.2029C120.825 44.1369 120.725 44.0445 120.661 43.9309C120.598 43.8174 120.566 43.688 120.566 43.5428C120.566 43.4213 120.582 43.3157 120.617 43.2259C120.648 43.1361 120.691 43.0648 120.738 43.0093C120.852 43.0331 120.949 43.0516 121.031 43.0595C121.113 43.0701 121.203 43.0727 121.298 43.0727C121.533 43.0727 121.702 43.0146 121.805 42.8984C121.905 42.7796 121.958 42.608 121.958 42.3782V38.7314ZM126.218 41.4566C126.218 40.9866 126.291 40.572 126.439 40.2102C126.587 39.8511 126.791 39.5474 127.044 39.3044C127.3 39.0588 127.601 38.874 127.947 38.7472C128.293 38.6231 128.668 38.5598 129.072 38.5598C129.476 38.5598 129.851 38.6231 130.197 38.7472C130.543 38.874 130.844 39.0588 131.103 39.3044C131.362 39.5474 131.565 39.8511 131.713 40.2102C131.861 40.572 131.935 40.9866 131.935 41.4566C131.935 41.9267 131.863 42.3439 131.718 42.7083C131.573 43.0727 131.372 43.3764 131.116 43.6193C130.86 43.8623 130.559 44.0471 130.21 44.1739C129.862 44.3006 129.481 44.364 129.072 44.364C128.663 44.364 128.283 44.3006 127.934 44.1713C127.585 44.0419 127.284 43.8517 127.031 43.6061C126.78 43.3606 126.579 43.0542 126.434 42.6951C126.291 42.3333 126.218 41.9214 126.218 41.4566ZM127.844 41.4566C127.844 42.0059 127.955 42.4152 128.177 42.6845C128.401 42.9565 128.7 43.0912 129.072 43.0912C129.452 43.0912 129.753 42.9565 129.975 42.6845C130.197 42.4152 130.308 42.0059 130.308 41.4566C130.308 40.9153 130.2 40.5086 129.981 40.2392C129.759 39.9672 129.46 39.8326 129.08 39.8326C128.708 39.8326 128.409 39.9646 128.182 40.234C127.958 40.5007 127.844 40.91 127.844 41.4566ZM136.223 44.166C136.157 44.1845 136.054 44.2029 135.912 44.2214C135.769 44.2373 135.629 44.2478 135.492 44.2478C135.354 44.2478 135.23 44.2373 135.125 44.2161C135.022 44.195 134.932 44.158 134.861 44.1026C134.787 44.0471 134.734 43.9732 134.697 43.8781C134.66 43.7804 134.644 43.6537 134.644 43.4979V38.7314C134.71 38.7182 134.816 38.7024 134.958 38.6812C135.103 38.6601 135.241 38.6495 135.375 38.6495C135.513 38.6495 135.634 38.6601 135.74 38.6812C135.846 38.7024 135.935 38.7393 136.007 38.7948C136.078 38.8476 136.133 38.9242 136.168 39.0192C136.205 39.1143 136.223 39.2411 136.223 39.3995V44.166ZM144.161 44.0128C144.077 44.0973 143.952 44.1607 143.794 44.2056C143.636 44.2505 143.443 44.2742 143.221 44.2742C142.997 44.2742 142.788 44.2426 142.59 44.1739C142.389 44.1079 142.228 43.9494 142.101 43.6959L141.206 41.8712C141.116 41.6863 141.035 41.5094 140.963 41.3457C140.892 41.1793 140.813 40.9866 140.728 40.77L140.675 40.7806C140.699 41.1054 140.712 41.4355 140.715 41.7735C140.718 42.1115 140.72 42.4416 140.72 42.7664V44.166C140.654 44.1845 140.551 44.2029 140.417 44.2214C140.282 44.2373 140.147 44.2478 140.015 44.2478C139.883 44.2478 139.764 44.2373 139.664 44.2214C139.561 44.2029 139.476 44.166 139.41 44.1105C139.344 44.0577 139.294 43.9838 139.257 43.8913C139.22 43.7963 139.202 43.6748 139.202 43.5243V39.0113C139.286 38.8898 139.416 38.8001 139.59 38.7393C139.764 38.6786 139.952 38.6495 140.15 38.6495C140.374 38.6495 140.586 38.6839 140.786 38.7525C140.99 38.8212 141.151 38.9796 141.27 39.2279L142.173 41.0499C142.262 41.2374 142.344 41.4144 142.418 41.5781C142.49 41.7444 142.569 41.9346 142.651 42.1538L142.698 42.1432C142.672 41.8184 142.659 41.4936 142.651 41.1688C142.645 40.844 142.643 40.5192 142.643 40.1943V38.7314C142.709 38.7129 142.809 38.6944 142.946 38.6759C143.081 38.6575 143.216 38.6495 143.348 38.6495C143.612 38.6495 143.813 38.6971 143.952 38.7895C144.09 38.8819 144.161 39.0773 144.161 39.3704V44.0128ZM146.886 39.9937C146.844 39.9276 146.804 39.8379 146.77 39.7243C146.733 39.6081 146.715 39.4893 146.715 39.3625C146.715 39.1275 146.767 38.9585 146.873 38.8582C146.979 38.7552 147.116 38.7024 147.282 38.7024H151.22C151.262 38.7684 151.302 38.8608 151.339 38.9743C151.373 39.0879 151.391 39.2094 151.391 39.3361C151.391 39.5711 151.339 39.7375 151.233 39.8405C151.127 39.9435 150.993 39.9937 150.824 39.9937H149.82V44.166C149.754 44.1845 149.651 44.2029 149.509 44.2214C149.369 44.2373 149.229 44.2478 149.089 44.2478C148.951 44.2478 148.83 44.2373 148.724 44.2161C148.619 44.195 148.529 44.158 148.458 44.1026C148.386 44.0471 148.331 43.9732 148.294 43.8781C148.259 43.7804 148.241 43.6537 148.241 43.4979V39.9937H146.886Z" fill="#878786"/>
<path d="M200.921 42.027C200.657 41.9346 200.416 41.8448 200.2 41.7497C199.983 41.6573 199.796 41.5438 199.64 41.4117C199.484 41.2797 199.36 41.1212 199.273 40.939C199.186 40.7542 199.144 40.5297 199.144 40.2656C199.144 39.7534 199.339 39.344 199.735 39.0377C200.129 38.7314 200.68 38.5782 201.391 38.5782C201.65 38.5782 201.89 38.5941 202.114 38.6311C202.336 38.668 202.526 38.7235 202.687 38.7974C202.846 38.874 202.973 38.9691 203.062 39.0879C203.152 39.2041 203.197 39.3414 203.197 39.4972C203.197 39.6556 203.16 39.7877 203.089 39.8986C203.017 40.0121 202.93 40.1046 202.827 40.1838C202.695 40.0993 202.516 40.0253 202.294 39.962C202.072 39.8986 201.827 39.8669 201.562 39.8669C201.293 39.8669 201.092 39.9065 200.968 39.9805C200.842 40.057 200.778 40.1521 200.778 40.2656C200.778 40.3554 200.815 40.4294 200.894 40.4875C200.974 40.5429 201.09 40.5957 201.248 40.6433L201.726 40.7991C202.291 40.9786 202.727 41.2084 203.031 41.4883C203.334 41.7682 203.485 42.1485 203.485 42.6317C203.485 43.144 203.284 43.556 202.88 43.8729C202.479 44.1871 201.885 44.3455 201.103 44.3455C200.826 44.3455 200.567 44.3244 200.329 44.2795C200.092 44.2346 199.886 44.166 199.706 44.0788C199.529 43.9917 199.392 43.8834 199.291 43.754C199.194 43.6246 199.144 43.4767 199.144 43.3077C199.144 43.1335 199.194 42.9856 199.297 42.8615C199.4 42.7373 199.511 42.6423 199.632 42.5763C199.798 42.7083 200.004 42.8245 200.25 42.9196C200.493 43.0173 200.76 43.0648 201.048 43.0648C201.343 43.0648 201.552 43.0199 201.671 42.9301C201.792 42.8377 201.853 42.7321 201.853 42.6132C201.853 42.4918 201.803 42.402 201.708 42.3386C201.61 42.2752 201.475 42.2118 201.301 42.1538L200.921 42.027ZM205.896 39.9937C205.854 39.9276 205.817 39.8379 205.78 39.7243C205.743 39.6081 205.724 39.4893 205.724 39.3625C205.724 39.1275 205.777 38.9585 205.883 38.8582C205.988 38.7552 206.126 38.7024 206.295 38.7024H210.232C210.274 38.7684 210.311 38.8608 210.348 38.9743C210.385 39.0879 210.404 39.2094 210.404 39.3361C210.404 39.5711 210.351 39.7375 210.245 39.8405C210.139 39.9435 210.002 39.9937 209.833 39.9937H208.832V44.166C208.766 44.1845 208.661 44.2029 208.521 44.2214C208.378 44.2373 208.238 44.2478 208.101 44.2478C207.961 44.2478 207.839 44.2373 207.734 44.2161C207.628 44.195 207.541 44.158 207.467 44.1026C207.396 44.0471 207.34 43.9732 207.306 43.8781C207.269 43.7804 207.251 43.6537 207.251 43.4979V39.9937H205.896ZM212.704 41.4566C212.704 40.9866 212.778 40.572 212.925 40.2102C213.073 39.8511 213.274 39.5474 213.53 39.3044C213.786 39.0588 214.087 38.874 214.433 38.7472C214.779 38.6231 215.154 38.5598 215.558 38.5598C215.962 38.5598 216.337 38.6231 216.683 38.7472C217.029 38.874 217.33 39.0588 217.589 39.3044C217.848 39.5474 218.051 39.8511 218.199 40.2102C218.347 40.572 218.421 40.9866 218.421 41.4566C218.421 41.9267 218.347 42.3439 218.204 42.7083C218.059 43.0727 217.858 43.3764 217.602 43.6193C217.346 43.8623 217.045 44.0471 216.696 44.1739C216.348 44.3006 215.967 44.364 215.558 44.364C215.149 44.364 214.769 44.3006 214.42 44.1713C214.071 44.0419 213.77 43.8517 213.517 43.6061C213.263 43.3606 213.065 43.0542 212.92 42.6951C212.778 42.3333 212.704 41.9214 212.704 41.4566ZM214.33 41.4566C214.33 42.0059 214.441 42.4152 214.663 42.6845C214.887 42.9565 215.186 43.0912 215.558 43.0912C215.938 43.0912 216.237 42.9565 216.461 42.6845C216.683 42.4152 216.794 42.0059 216.794 41.4566C216.794 40.9153 216.686 40.5086 216.467 40.2392C216.245 39.9672 215.946 39.8326 215.566 39.8326C215.194 39.8326 214.895 39.9646 214.668 40.234C214.444 40.5007 214.33 40.91 214.33 41.4566ZM223.919 39.8326C223.457 39.8326 223.1 39.9725 222.854 40.2551C222.606 40.5403 222.482 40.939 222.482 41.4566C222.482 41.9795 222.619 42.3835 222.894 42.666C223.169 42.9486 223.536 43.0912 224.001 43.0912C224.246 43.0912 224.457 43.0595 224.629 42.9909C224.798 42.9248 224.964 42.8509 225.12 42.7664C225.223 42.8509 225.302 42.9512 225.36 43.0701C225.416 43.1863 225.445 43.3236 225.445 43.4794C225.445 43.7276 225.308 43.9362 225.033 44.1079C224.761 44.2795 224.344 44.364 223.784 44.364C223.38 44.364 223 44.3086 222.646 44.1924C222.289 44.0788 221.98 43.9019 221.716 43.6642C221.45 43.4266 221.241 43.1255 221.088 42.7611C220.935 42.3967 220.858 41.9636 220.858 41.4566C220.858 40.9866 220.932 40.5746 221.08 40.2155C221.228 39.8563 221.428 39.5553 221.685 39.3071C221.941 39.0615 222.239 38.874 222.582 38.7472C222.926 38.6231 223.293 38.5598 223.684 38.5598C224.238 38.5598 224.666 38.6495 224.97 38.8291C225.276 39.0113 225.426 39.2411 225.426 39.5236C225.426 39.6821 225.387 39.8167 225.31 39.9303C225.231 40.0465 225.141 40.1363 225.038 40.2023C224.883 40.0993 224.716 40.0121 224.537 39.9408C224.36 39.8669 224.154 39.8326 223.919 39.8326ZM229.681 42.1696V44.166C229.612 44.1845 229.509 44.2029 229.364 44.2214C229.219 44.2373 229.079 44.2478 228.939 44.2478C228.801 44.2478 228.68 44.2373 228.574 44.2161C228.469 44.195 228.379 44.158 228.307 44.1026C228.234 44.0471 228.181 43.9732 228.144 43.8781C228.109 43.7804 228.091 43.6537 228.091 43.4979V38.7314C228.157 38.7182 228.263 38.7024 228.405 38.6812C228.55 38.6601 228.69 38.6495 228.822 38.6495C228.96 38.6495 229.081 38.6601 229.187 38.6812C229.292 38.7024 229.382 38.7393 229.454 38.7948C229.525 38.8476 229.58 38.9242 229.617 39.0192C229.652 39.1143 229.67 39.2411 229.67 39.3995V40.8334L231.548 38.6759C231.957 38.6759 232.25 38.7525 232.43 38.9057C232.607 39.0588 232.696 39.2411 232.696 39.4523C232.696 39.6081 232.657 39.756 232.578 39.896C232.498 40.0333 232.374 40.1891 232.197 40.3634L231.07 41.4936C231.22 41.6626 231.379 41.8369 231.545 42.0164C231.709 42.1986 231.872 42.3729 232.031 42.5446C232.192 42.7162 232.345 42.8799 232.493 43.0384C232.638 43.1942 232.768 43.3289 232.876 43.4424C232.876 43.5771 232.852 43.6933 232.805 43.7963C232.754 43.8993 232.691 43.9864 232.609 44.0577C232.527 44.129 232.435 44.1845 232.335 44.2214C232.232 44.2558 232.123 44.2742 232.01 44.2742C231.762 44.2742 231.561 44.2135 231.405 44.0894C231.247 43.9653 231.096 43.82 230.953 43.651L229.681 42.1696Z" fill="#878786"/>
<path fill-rule="evenodd" clip-rule="evenodd" d="M185.166 44.7812C185.755 44.327 186.605 42.9354 186.653 42.909C188.018 40.2788 188.454 37.9946 189.022 35.0925C189.529 31.2265 189.37 27.8807 188.911 23.9725C188.224 18.1418 186.487 8.23917 183.186 3.272C183.291 3.272 181.379 0.427964 181.01 0.134846C180.458 -0.065848 173.272 -0.0341597 173.164 0.174456C170.133 6.08436 167.027 12.4141 164.357 18.4666L173.114 18.4772L176.69 11.0911C180.595 17.4764 181.049 26.0322 181.094 27.7144C181.187 31.2635 179.584 36.3997 178.781 37.8441L167.991 38.0659C168.213 38.8846 169.097 45.1166 169.121 45.1113L185.166 44.7812ZM174.706 24.4135V26.835C176.204 26.835 177.566 26.9459 179 26.9459L179.111 29.5866C177.762 30.0936 171.355 32.3515 170.883 32.6974C170.84 32.164 170.431 30.7037 170.304 29.9167L165.9 29.8903C165.707 28.1369 165.105 26.196 164.798 24.3026C168.102 24.3026 171.405 24.4135 174.706 24.4135Z" fill="#E7B652"/>
<path fill-rule="evenodd" clip-rule="evenodd" d="M253.777 0.000152588H242.596V45.4493H253.777V39.2674L258.768 46.701L263.761 39.2674V45.4493H274.942V0.000152588H263.761V0.245738L258.768 20.4313L253.777 0.245738V0.000152588Z" fill="#E7B652"/>
<path d="M288.104 22.2983C288.104 21.4083 287.819 20.6425 287.253 19.9956C286.688 19.3512 285.967 19.0264 285.093 19.0264C284.219 19.0264 283.498 19.3512 282.933 19.9956C282.365 20.6425 282.083 21.4083 282.083 22.2983C282.083 23.1882 282.363 23.9487 282.917 24.5772C283.493 25.24 284.219 25.5701 285.093 25.5701C285.967 25.5701 286.694 25.24 287.269 24.5772C287.824 23.9487 288.104 23.1882 288.104 22.2983ZM290.942 22.2983C290.942 23.9355 290.38 25.306 289.252 26.4125C288.125 27.5163 286.738 28.0708 285.093 28.0708C283.448 28.0708 282.062 27.5163 280.934 26.4125C279.807 25.306 279.244 23.9355 279.244 22.2983C279.244 20.6637 279.807 19.2931 280.934 18.1867C282.062 17.0802 283.448 16.5283 285.093 16.5283C286.738 16.5283 288.125 17.0802 289.252 18.1867C290.38 19.2931 290.942 20.6637 290.942 22.2983ZM292.5 16.7422H295.31V20.9093H298.983V16.7422H301.79V27.8543H298.983V23.41H295.31V27.8543H292.5V16.7422ZM308.073 27.8543H305.234V19.243H303.042V16.7422H310.264V19.243H308.073V27.8543ZM316.684 23.9962L315.527 20.1223L314.352 23.9962H316.684ZM321.068 27.8543H317.965L317.423 26.2488H313.565L312.979 27.8543H309.94L314.4 16.7422H316.637L321.068 27.8543ZM327.487 27.8543V22.8554L324.738 27.8543H321.282L325.002 22.2824L321.514 16.7422H324.633L327.487 21.881V16.7422H330.234V21.881L333.088 16.7422H336.191L332.703 22.2824L336.437 27.8543H332.98L330.234 22.8554V27.8543H327.487Z" fill="#0A295D"/>
<path d="M290.832 39.8326C290.369 39.8326 290.013 39.9725 289.767 40.2551C289.519 40.5403 289.395 40.939 289.395 41.4566C289.395 41.9795 289.532 42.3835 289.807 42.666C290.082 42.9486 290.449 43.0912 290.913 43.0912C291.159 43.0912 291.37 43.0595 291.542 42.9909C291.714 42.9248 291.877 42.8509 292.033 42.7664C292.136 42.8509 292.215 42.9512 292.273 43.0701C292.329 43.1863 292.358 43.3236 292.358 43.4794C292.358 43.7276 292.221 43.9362 291.946 44.1079C291.674 44.2795 291.257 44.364 290.697 44.364C290.293 44.364 289.915 44.3086 289.559 44.1924C289.205 44.0788 288.893 43.9019 288.629 43.6642C288.365 43.4266 288.154 43.1255 288.001 42.7611C287.848 42.3967 287.771 41.9636 287.771 41.4566C287.771 40.9866 287.845 40.5746 287.993 40.2155C288.141 39.8563 288.341 39.5553 288.598 39.3071C288.854 39.0615 289.152 38.874 289.495 38.7472C289.839 38.6231 290.206 38.5598 290.597 38.5598C291.151 38.5598 291.579 38.6495 291.883 38.8291C292.189 39.0113 292.339 39.2411 292.339 39.5236C292.339 39.6821 292.3 39.8167 292.223 39.9303C292.144 40.0465 292.054 40.1363 291.951 40.2023C291.795 40.0993 291.629 40.0121 291.449 39.9408C291.273 39.8669 291.067 39.8326 290.832 39.8326ZM294.732 41.4566C294.732 40.9866 294.806 40.572 294.954 40.2102C295.102 39.8511 295.302 39.5474 295.558 39.3044C295.815 39.0588 296.116 38.874 296.462 38.7472C296.807 38.6231 297.182 38.5598 297.586 38.5598C297.988 38.5598 298.363 38.6231 298.709 38.7472C299.055 38.874 299.358 39.0588 299.617 39.3044C299.876 39.5474 300.079 39.8511 300.227 40.2102C300.375 40.572 300.449 40.9866 300.449 41.4566C300.449 41.9267 300.375 42.3439 300.23 42.7083C300.087 43.0727 299.887 43.3764 299.63 43.6193C299.374 43.8623 299.073 44.0471 298.725 44.1739C298.373 44.3006 297.996 44.364 297.586 44.364C297.177 44.364 296.797 44.3006 296.448 44.1713C296.1 44.0419 295.799 43.8517 295.545 43.6061C295.292 43.3606 295.094 43.0542 294.948 42.6951C294.806 42.3333 294.732 41.9214 294.732 41.4566ZM296.359 41.4566C296.359 42.0059 296.469 42.4152 296.691 42.6845C296.913 42.9565 297.212 43.0912 297.586 43.0912C297.964 43.0912 298.265 42.9565 298.49 42.6845C298.711 42.4152 298.822 42.0059 298.822 41.4566C298.822 40.9153 298.714 40.5086 298.492 40.2392C298.273 39.9672 297.975 39.8326 297.594 39.8326C297.222 39.8326 296.921 39.9646 296.697 40.234C296.469 40.5007 296.359 40.91 296.359 41.4566ZM306.94 42.8562C306.861 42.9222 306.76 42.975 306.636 43.0146C306.515 43.0542 306.372 43.0727 306.208 43.0727C305.992 43.0727 305.812 43.0463 305.672 42.9909C305.53 42.938 305.437 42.8456 305.395 42.7109C305.226 42.1828 305.089 41.7524 304.98 41.4249C304.872 41.0975 304.788 40.8096 304.727 40.564H304.682C304.664 40.9179 304.65 41.2427 304.642 41.5332C304.632 41.8263 304.627 42.1115 304.624 42.3861C304.621 42.6634 304.613 42.9433 304.605 43.2259C304.598 43.5111 304.584 43.8227 304.566 44.166C304.487 44.195 304.384 44.2214 304.257 44.2426C304.133 44.2637 304.006 44.2742 303.879 44.2742C303.615 44.2742 303.407 44.232 303.261 44.1475C303.113 44.063 303.04 43.9098 303.04 43.688L303.301 39.0826C303.349 39.0034 303.454 38.9189 303.618 38.8291C303.779 38.7393 304.009 38.6944 304.304 38.6944C304.621 38.6944 304.872 38.7446 305.052 38.8423C305.234 38.9427 305.366 39.1037 305.451 39.3256C305.503 39.4708 305.564 39.6372 305.625 39.822C305.688 40.0095 305.752 40.2023 305.815 40.4003C305.878 40.5984 305.942 40.7964 306 40.9918C306.061 41.1873 306.116 41.3642 306.164 41.52H306.208C306.354 41.0156 306.496 40.5244 306.641 40.0544C306.787 39.5817 306.919 39.1856 307.04 38.8661C307.13 38.8185 307.246 38.7763 307.386 38.7446C307.529 38.7103 307.687 38.6944 307.861 38.6944C308.155 38.6944 308.398 38.7367 308.582 38.8265C308.77 38.9136 308.878 39.0377 308.907 39.1988C308.931 39.3203 308.957 39.5051 308.984 39.756C309.013 40.0042 309.039 40.2868 309.071 40.5984C309.1 40.9126 309.132 41.2427 309.161 41.5913C309.19 41.9425 309.219 42.2779 309.248 42.6C309.274 42.9222 309.295 43.2153 309.314 43.4847C309.332 43.7514 309.346 43.9574 309.351 44.1026C309.248 44.1633 309.142 44.2056 309.029 44.2346C308.918 44.261 308.775 44.2742 308.601 44.2742C308.371 44.2742 308.178 44.2346 308.023 44.158C307.867 44.0788 307.782 43.9257 307.772 43.6959C307.735 43.041 307.711 42.4495 307.703 41.9267C307.692 41.4038 307.679 40.9628 307.661 40.6089H307.616C307.558 40.844 307.471 41.1371 307.354 41.4936C307.241 41.8474 307.104 42.3016 306.94 42.8562ZM314.207 41.2665C314.461 41.2665 314.656 41.2084 314.791 41.0922C314.925 40.9734 314.994 40.7964 314.994 40.5535C314.994 40.3264 314.923 40.1495 314.783 40.0253C314.64 39.9039 314.434 39.8405 314.162 39.8405C314.067 39.8405 313.988 39.8431 313.925 39.8458C313.861 39.8484 313.795 39.8563 313.729 39.8669V41.2665H314.207ZM313.74 44.166C313.674 44.1845 313.568 44.2029 313.428 44.2214C313.285 44.2373 313.146 44.2478 313.008 44.2478C312.868 44.2478 312.747 44.2373 312.641 44.2161C312.536 44.195 312.448 44.158 312.374 44.1026C312.303 44.0471 312.248 43.9732 312.213 43.8781C312.176 43.7804 312.158 43.6537 312.158 43.4979V39.2437C312.158 39.1196 312.192 39.0219 312.264 38.9506C312.332 38.8819 312.427 38.8265 312.546 38.7842C312.752 38.7129 312.984 38.6601 313.246 38.6258C313.507 38.5941 313.771 38.5782 314.035 38.5782C314.867 38.5782 315.504 38.7552 315.942 39.109C316.38 39.4655 316.602 39.9461 316.602 40.5535C316.602 40.8492 316.555 41.116 316.462 41.3536C316.367 41.5913 316.23 41.7946 316.045 41.9663C315.863 42.1379 315.63 42.2726 315.351 42.365C315.071 42.4574 314.746 42.505 314.379 42.505H313.74V44.166ZM320.376 38.8925C320.479 38.8317 320.632 38.7763 320.841 38.7208C321.049 38.668 321.258 38.639 321.466 38.639C321.77 38.639 322.034 38.6839 322.267 38.771C322.499 38.8582 322.647 38.9955 322.713 39.183C322.821 39.4946 322.94 39.859 323.067 40.2736C323.193 40.6908 323.318 41.1186 323.444 41.5622C323.571 42.0032 323.695 42.4389 323.817 42.8694C323.935 43.2998 324.041 43.6801 324.131 44.0128C324.06 44.0973 323.951 44.1633 323.806 44.2161C323.661 44.2663 323.489 44.2927 323.291 44.2927C323.149 44.2927 323.024 44.2795 322.927 44.2558C322.826 44.232 322.744 44.195 322.681 44.1475C322.618 44.1 322.568 44.0366 322.528 43.9574C322.488 43.8808 322.454 43.791 322.425 43.688L322.261 43.0648H320.629C320.579 43.2444 320.532 43.4319 320.484 43.6246C320.437 43.8174 320.386 44.0022 320.339 44.1845C320.254 44.2135 320.167 44.2399 320.072 44.261C319.98 44.2822 319.866 44.2927 319.734 44.2927C319.428 44.2927 319.201 44.2399 319.053 44.1343C318.905 44.0287 318.831 43.8834 318.831 43.6959C318.831 43.6114 318.844 43.5269 318.868 43.4424C318.892 43.3606 318.918 43.2602 318.95 43.1467C318.992 42.9829 319.05 42.7822 319.124 42.5419C319.201 42.299 319.283 42.0402 319.372 41.7603C319.465 41.4804 319.56 41.1925 319.663 40.8968C319.763 40.6037 319.861 40.3237 319.951 40.0623C320.04 39.8009 320.125 39.5685 320.199 39.3625C320.275 39.1566 320.334 39.0008 320.376 38.8925ZM321.458 40.057C321.374 40.3105 321.279 40.5931 321.173 40.9021C321.068 41.211 320.975 41.5253 320.891 41.8448H322.01C321.926 41.52 321.839 41.2031 321.752 40.8941C321.664 40.5825 321.585 40.3053 321.514 40.057H321.458ZM331.636 44.0128C331.551 44.0973 331.43 44.1607 331.269 44.2056C331.11 44.2505 330.917 44.2742 330.696 44.2742C330.474 44.2742 330.263 44.2426 330.065 44.1739C329.864 44.1079 329.703 43.9494 329.576 43.6959L328.681 41.8712C328.591 41.6863 328.509 41.5094 328.438 41.3457C328.367 41.1793 328.287 40.9866 328.203 40.77L328.15 40.7806C328.174 41.1054 328.187 41.4355 328.19 41.7735C328.192 42.1115 328.195 42.4416 328.195 42.7664V44.166C328.129 44.1845 328.029 44.2029 327.891 44.2214C327.757 44.2373 327.622 44.2478 327.49 44.2478C327.358 44.2478 327.239 44.2373 327.139 44.2214C327.036 44.2029 326.951 44.166 326.885 44.1105C326.819 44.0577 326.769 43.9838 326.732 43.8913C326.695 43.7963 326.677 43.6748 326.677 43.5243V39.0113C326.761 38.8898 326.89 38.8001 327.065 38.7393C327.239 38.6786 327.426 38.6495 327.625 38.6495C327.849 38.6495 328.06 38.6839 328.261 38.7525C328.464 38.8212 328.625 38.9796 328.744 39.2279L329.647 41.0499C329.737 41.2374 329.819 41.4144 329.893 41.5781C329.964 41.7444 330.043 41.9346 330.128 42.1538L330.173 42.1432C330.146 41.8184 330.133 41.4936 330.128 41.1688C330.12 40.844 330.117 40.5192 330.117 40.1943V38.7314C330.183 38.7129 330.284 38.6944 330.421 38.6759C330.556 38.6575 330.69 38.6495 330.822 38.6495C331.086 38.6495 331.287 38.6971 331.427 38.7895C331.564 38.8819 331.636 39.0773 331.636 39.3704V44.0128ZM337.485 44.166C337.419 44.1845 337.316 44.2029 337.179 44.2214C337.039 44.2373 336.904 44.2478 336.772 44.2478C336.495 44.2478 336.289 44.2003 336.149 44.1079C336.011 44.0155 335.94 43.8174 335.94 43.5164V42.2964C335.792 42.0745 335.628 41.8263 335.454 41.557C335.28 41.285 335.108 41.0077 334.939 40.7251C334.77 40.4426 334.614 40.1653 334.469 39.8907C334.324 39.616 334.208 39.3652 334.118 39.1354C334.195 39.0272 334.303 38.9295 334.438 38.8397C334.572 38.7472 334.741 38.7024 334.939 38.7024C335.174 38.7024 335.364 38.7525 335.512 38.8476C335.66 38.9453 335.8 39.1249 335.932 39.3889L336.682 40.8968H336.735C336.819 40.7119 336.893 40.5403 336.957 40.3871C337.02 40.234 337.081 40.0808 337.142 39.9276C337.202 39.7745 337.266 39.6134 337.332 39.447C337.398 39.2833 337.474 39.0905 337.559 38.874C337.667 38.8212 337.786 38.7789 337.918 38.7472C338.05 38.7182 338.177 38.7024 338.298 38.7024C338.51 38.7024 338.686 38.7578 338.834 38.8714C338.982 38.9823 339.056 39.1486 339.056 39.3704C339.056 39.4444 339.04 39.5315 339.011 39.6319C338.982 39.7349 338.911 39.8907 338.803 40.0993C338.694 40.3053 338.536 40.5878 338.33 40.9417C338.121 41.2982 337.841 41.7603 337.485 42.3333V44.166Z" fill="#878786"/>
<path d="M126.968 3.87938C126.968 4.27284 126.896 4.62142 126.757 4.91982C126.617 5.21822 126.416 5.44796 126.157 5.60904C125.896 5.77277 125.597 5.85199 125.262 5.85199C124.926 5.85199 124.631 5.77277 124.369 5.61168C124.108 5.45324 123.905 5.2235 123.762 4.9251C123.619 4.62934 123.545 4.28869 123.545 3.90051V3.70245C123.545 3.30635 123.614 2.95777 123.759 2.65673C123.902 2.35569 124.103 2.12331 124.361 1.96223C124.623 1.80115 124.921 1.72192 125.254 1.72192C125.592 1.72192 125.888 1.80115 126.149 1.96223C126.408 2.12331 126.611 2.35569 126.751 2.65673C126.894 2.95777 126.968 3.30371 126.968 3.69981V3.87938ZM126.128 3.69453C126.128 3.27466 126.051 2.95249 125.901 2.73331C125.75 2.51414 125.534 2.40587 125.254 2.40587C124.977 2.40587 124.763 2.51414 124.612 2.73067C124.462 2.94721 124.385 3.2641 124.383 3.68397V3.87938C124.383 4.28869 124.459 4.60821 124.61 4.83532C124.76 5.06242 124.977 5.17597 125.262 5.17597C125.539 5.17597 125.753 5.06506 125.901 4.84588C126.051 4.62934 126.125 4.30982 126.128 3.89258V3.69453ZM130.358 2.45076H129.128V5.79653H128.301V2.45076H127.087V1.77738H130.358V2.45076ZM132.144 4.15665H131.666V5.79653H130.836V1.77738H131.666V3.38821H132.043L133.026 1.77738H134.037L132.796 3.68133L134.166 5.79653H133.179L132.144 4.15665ZM135.312 4.38375V5.79653H134.483V1.77738H136.052C136.353 1.77738 136.617 1.83283 136.847 1.94374C137.076 2.05465 137.251 2.21045 137.375 2.41379C137.499 2.61712 137.56 2.8495 137.56 3.11093C137.56 3.5044 137.425 3.81336 137.156 4.0431C136.886 4.2702 136.514 4.38375 136.036 4.38375H135.312ZM135.312 3.71037H136.052C136.268 3.71037 136.435 3.6602 136.551 3.55721C136.667 3.45423 136.725 3.30635 136.725 3.11622C136.725 2.91816 136.664 2.75972 136.551 2.63825C136.435 2.51678 136.274 2.4534 136.07 2.45076H135.312V3.71037ZM138.972 3.22449H139.617C140.089 3.22449 140.464 3.34068 140.742 3.56778C141.019 3.79752 141.156 4.10648 141.156 4.49466C141.156 4.88549 141.019 5.19973 140.744 5.43476C140.47 5.67242 140.105 5.79389 139.646 5.79653H138.138V1.77738H138.972V3.22449ZM142.329 5.79653H141.502V1.77738H142.329V5.79653ZM138.972 3.89258V5.12843H139.63C139.841 5.12843 140.01 5.07034 140.137 4.95415C140.264 4.8406 140.327 4.68479 140.327 4.48938C140.327 4.30717 140.266 4.16194 140.145 4.05631C140.023 3.95068 139.86 3.89522 139.648 3.89258H138.972ZM145.999 2.45076H144.769V5.79653H143.94V2.45076H142.727V1.77738H145.999V2.45076ZM149.694 3.87938C149.694 4.27284 149.622 4.62142 149.485 4.91982C149.345 5.21822 149.144 5.44796 148.883 5.60904C148.624 5.77277 148.326 5.85199 147.988 5.85199C147.655 5.85199 147.359 5.77277 147.098 5.61168C146.836 5.45324 146.633 5.2235 146.49 4.9251C146.345 4.62934 146.274 4.28869 146.271 3.90051V3.70245C146.271 3.30635 146.343 2.95777 146.485 2.65673C146.628 2.35569 146.831 2.12331 147.09 1.96223C147.351 1.80115 147.65 1.72192 147.982 1.72192C148.318 1.72192 148.614 1.80115 148.875 1.96223C149.136 2.12331 149.337 2.35569 149.48 2.65673C149.622 2.95777 149.694 3.30371 149.694 3.69981V3.87938ZM148.854 3.69453C148.854 3.27466 148.78 2.95249 148.629 2.73331C148.476 2.51414 148.262 2.40587 147.982 2.40587C147.705 2.40587 147.491 2.51414 147.338 2.73067C147.188 2.94721 147.114 3.2641 147.111 3.68397V3.87938C147.111 4.28869 147.185 4.60821 147.338 4.83532C147.489 5.06242 147.705 5.17597 147.988 5.17597C148.268 5.17597 148.479 5.06506 148.629 4.84588C148.777 4.62934 148.854 4.30982 148.854 3.89258V3.69453ZM152.715 4.05103H151.125V5.12843H152.989V5.79653H150.298V1.77738H152.984V2.45076H151.125V3.40669H152.715V4.05103Z" fill="#878786"/>
<path d="M194.467 4.98316H193.017L192.74 5.80706H191.861L193.355 1.78791H194.124L195.626 5.80706H194.747L194.467 4.98316ZM193.239 4.30978H194.245L193.741 2.80458L193.239 4.30978ZM197.314 4.16982H196.836V5.80706H196.007V1.78791H196.836V3.39874H197.214L198.196 1.78791H199.207L197.966 3.69186L199.337 5.80706H198.349L197.314 4.16982ZM199.619 1.78791H200.446V5.1416H202.054V1.78791H202.886V5.1416H203.435L203.38 6.77356H202.606V5.80706H199.619V1.78791ZM206.353 1.78791H207.182V5.80706H206.353V3.13995L204.742 5.80706H203.916V1.78791H204.742V4.46294L206.353 1.78791ZM211.199 3.88991C211.199 4.28601 211.127 4.63195 210.99 4.93035C210.85 5.22875 210.649 5.45849 210.388 5.62221C210.129 5.78329 209.831 5.86516 209.493 5.86516C209.16 5.86516 208.864 5.78329 208.603 5.62485C208.341 5.46377 208.138 5.23403 207.996 4.93827C207.85 4.63987 207.779 4.29922 207.776 3.91103V3.71298C207.776 3.31688 207.848 2.9683 207.99 2.66726C208.133 2.36622 208.336 2.13648 208.595 1.9754C208.856 1.81431 209.152 1.73245 209.488 1.73245C209.823 1.73245 210.119 1.81431 210.38 1.9754C210.642 2.13648 210.842 2.36622 210.985 2.66726C211.127 2.9683 211.199 3.31688 211.199 3.71034V3.88991ZM210.359 3.7077C210.359 3.28519 210.285 2.96566 210.135 2.74648C209.981 2.52466 209.767 2.4164 209.488 2.4164C209.21 2.4164 208.996 2.52466 208.843 2.7412C208.693 2.95774 208.616 3.27462 208.616 3.6945V3.88991C208.616 4.29922 208.69 4.61874 208.843 4.84584C208.994 5.07295 209.21 5.1865 209.493 5.1865C209.773 5.1865 209.984 5.07559 210.135 4.85905C210.282 4.63987 210.359 4.32298 210.359 3.90311V3.7077ZM215.073 5.80706H214.243V4.08268H212.63V5.80706H211.803V1.78791H212.63V3.41722H214.243V1.78791H215.073V5.80706ZM218.212 4.06155H216.623V5.1416H218.49V5.80706H215.796V1.78791H218.482V2.46129H216.623V3.41722H218.212V4.06155ZM219.802 4.39428V5.80706H218.973V1.78791H220.542C220.843 1.78791 221.109 1.846 221.339 1.95427C221.566 2.06518 221.743 2.22362 221.867 2.42696C221.989 2.63029 222.052 2.86003 222.052 3.12146C222.052 3.51493 221.917 3.82653 221.648 4.05363C221.379 4.28073 221.004 4.39428 220.528 4.39428H219.802ZM219.802 3.7209H220.542C220.761 3.7209 220.927 3.67073 221.043 3.56774C221.157 3.46476 221.215 3.31688 221.215 3.12674C221.215 2.92869 221.157 2.77025 221.041 2.64878C220.924 2.52731 220.766 2.46657 220.56 2.46129H219.802V3.7209ZM225.892 5.80706H225.062V4.08268H223.449V5.80706H222.62V1.78791H223.449V3.41722H225.062V1.78791H225.892V5.80706ZM229.913 3.88991C229.913 4.28601 229.842 4.63195 229.702 4.93035C229.562 5.22875 229.361 5.45849 229.103 5.62221C228.841 5.78329 228.543 5.86516 228.208 5.86516C227.872 5.86516 227.576 5.78329 227.315 5.62485C227.054 5.46377 226.85 5.23403 226.708 4.93827C226.565 4.63987 226.494 4.29922 226.491 3.91103V3.71298C226.491 3.31688 226.562 2.9683 226.705 2.66726C226.848 2.36622 227.048 2.13648 227.31 1.9754C227.568 1.81431 227.867 1.73245 228.202 1.73245C228.538 1.73245 228.833 1.81431 229.095 1.9754C229.354 2.13648 229.557 2.36622 229.697 2.66726C229.842 2.9683 229.913 3.31688 229.913 3.71034V3.88991ZM229.074 3.7077C229.074 3.28519 228.997 2.96566 228.847 2.74648C228.696 2.52466 228.482 2.4164 228.202 2.4164C227.922 2.4164 227.708 2.52466 227.558 2.7412C227.407 2.95774 227.331 3.27462 227.328 3.6945V3.88991C227.328 4.29922 227.405 4.61874 227.555 4.84584C227.706 5.07295 227.922 5.1865 228.208 5.1865C228.485 5.1865 228.699 5.07559 228.847 4.85905C228.997 4.63987 229.071 4.32298 229.074 3.90311V3.7077ZM232.932 4.06155H231.345V5.1416H233.209V5.80706H230.515V1.78791H233.204V2.46129H231.345V3.41722H232.932V4.06155Z" fill="#878786"/>
<path d="M298.249 3.88991C298.249 4.28601 298.18 4.63195 298.04 4.93035C297.9 5.22875 297.7 5.45849 297.438 5.62221C297.18 5.78329 296.881 5.86516 296.543 5.86516C296.21 5.86516 295.915 5.78329 295.653 5.62485C295.392 5.46377 295.188 5.23403 295.046 4.93827C294.901 4.63987 294.829 4.29922 294.827 3.91103V3.71298C294.827 3.31688 294.898 2.9683 295.041 2.66726C295.183 2.36622 295.386 2.13648 295.645 1.9754C295.907 1.81431 296.202 1.73245 296.538 1.73245C296.873 1.73245 297.169 1.81431 297.43 1.9754C297.692 2.13648 297.893 2.36622 298.035 2.66726C298.178 2.9683 298.249 3.31688 298.249 3.71034V3.88991ZM297.409 3.7077C297.409 3.28519 297.335 2.96566 297.185 2.74648C297.032 2.52466 296.818 2.4164 296.538 2.4164C296.261 2.4164 296.047 2.52466 295.896 2.7412C295.743 2.95774 295.669 3.27462 295.666 3.6945V3.88991C295.666 4.29922 295.74 4.61874 295.894 4.84584C296.044 5.07295 296.261 5.1865 296.543 5.1865C296.823 5.1865 297.034 5.07559 297.185 4.85905C297.333 4.63987 297.409 4.32298 297.409 3.90311V3.7077ZM301.473 2.46129H299.678V3.23501H300.325C300.797 3.23501 301.172 3.3512 301.45 3.58095C301.727 3.80805 301.864 4.11701 301.864 4.50783C301.864 4.89602 301.727 5.21026 301.452 5.44793C301.178 5.68295 300.813 5.80442 300.356 5.80706H298.843V1.78791H301.473V2.46129ZM299.678 3.90311V5.1416H300.338C300.549 5.1416 300.718 5.08351 300.845 4.96732C300.972 4.85113 301.035 4.69532 301.035 4.49991C301.035 4.3177 300.974 4.17246 300.853 4.06684C300.734 3.96121 300.568 3.90575 300.359 3.90311H299.678ZM303.219 1.78791V5.1416H304.333V1.78791H305.165V5.1416H306.269V1.78791H307.095V5.16537H307.626L307.571 6.77356H306.831V5.80706H302.387V1.78791H303.219ZM310.581 4.06155H308.991V5.1416H310.858V5.80706H308.165V1.78791H310.85V2.46129H308.991V3.41722H310.581V4.06155ZM314.497 4.47086C314.466 4.90394 314.307 5.24459 314.019 5.49282C313.731 5.74104 313.351 5.86516 312.881 5.86516C312.366 5.86516 311.96 5.69087 311.664 5.3423C311.371 4.99637 311.223 4.52104 311.223 3.91368V3.66809C311.223 3.28255 311.289 2.9419 311.426 2.64614C311.561 2.35302 311.756 2.12592 312.01 1.97012C312.263 1.81167 312.556 1.73245 312.892 1.73245C313.356 1.73245 313.729 1.85657 314.011 2.10479C314.297 2.35302 314.46 2.70159 314.503 3.15051H313.676C313.655 2.89172 313.584 2.70159 313.457 2.5854C313.335 2.46921 313.145 2.41111 312.892 2.41111C312.614 2.41111 312.408 2.50882 312.271 2.70687C312.134 2.90493 312.065 3.21125 312.06 3.62848V3.93216C312.06 4.36524 312.126 4.68476 312.258 4.88545C312.39 5.08615 312.596 5.1865 312.881 5.1865C313.135 5.1865 313.327 5.1284 313.454 5.01221C313.578 4.89602 313.652 4.71381 313.671 4.47086H314.497ZM317.986 2.46129H316.755V5.80706H315.926V2.46129H314.714V1.78791H317.986V2.46129ZM318.458 5.80706V1.78791H319.866C320.352 1.78791 320.724 1.88297 320.975 2.07046C321.226 2.25531 321.353 2.52995 321.353 2.89172C321.353 3.08713 321.302 3.26142 321.199 3.41194C321.099 3.56246 320.959 3.67073 320.78 3.74203C320.985 3.79484 321.147 3.89783 321.265 4.05363C321.384 4.20943 321.442 4.40221 321.442 4.62667C321.442 5.01221 321.321 5.30533 321.075 5.50338C320.827 5.70407 320.476 5.80442 320.019 5.80706H318.458ZM319.285 4.06155V5.1416H319.995C320.191 5.1416 320.341 5.09407 320.452 5.00165C320.56 4.90922 320.616 4.78247 320.616 4.61874C320.616 4.25169 320.426 4.06684 320.045 4.06155H319.285ZM319.285 3.47268H319.898C320.317 3.46476 320.526 3.30103 320.526 2.97358C320.526 2.79138 320.473 2.66198 320.365 2.58012C320.259 2.5009 320.093 2.46129 319.866 2.46129H319.285V3.47268ZM325.364 3.88991C325.364 4.28601 325.295 4.63195 325.155 4.93035C325.015 5.22875 324.815 5.45849 324.556 5.62221C324.294 5.78329 323.996 5.86516 323.658 5.86516C323.325 5.86516 323.029 5.78329 322.768 5.62485C322.507 5.46377 322.303 5.23403 322.161 4.93827C322.018 4.63987 321.944 4.29922 321.941 3.91103V3.71298C321.941 3.31688 322.013 2.9683 322.155 2.66726C322.298 2.36622 322.501 2.13648 322.76 1.9754C323.021 1.81431 323.32 1.73245 323.653 1.73245C323.988 1.73245 324.286 1.81431 324.545 1.9754C324.807 2.13648 325.007 2.36622 325.15 2.66726C325.292 2.9683 325.364 3.31688 325.364 3.71034V3.88991ZM324.527 3.7077C324.527 3.28519 324.45 2.96566 324.3 2.74648C324.149 2.52466 323.933 2.4164 323.653 2.4164C323.375 2.4164 323.161 2.52466 323.011 2.7412C322.86 2.95774 322.784 3.27462 322.781 3.6945V3.88991C322.781 4.29922 322.855 4.61874 323.008 4.84584C323.159 5.07295 323.375 5.1865 323.658 5.1865C323.938 5.1865 324.149 5.07559 324.3 4.85905C324.447 4.63987 324.524 4.32298 324.527 3.90311V3.7077Z" fill="#878786"/>
</svg>
